<svg width="26" height="22" viewBox="0 0 26 22" fill="none" xmlns="http://www.w3.org/2000/svg">
<g clip-path="url(#clip0)">
<path d="M25.8394 8.80253C25.7378 8.64733 25.5767 8.55566 25.4059 8.55566H0.541037C0.370209 8.55566 0.209162 8.64733 0.106443 8.80133C0.004838 8.95653 -0.0265302 9.157 0.0231826 9.34153L2.8037 19.8221C3.14967 21.1249 4.19075 22.0001 5.39288 22.0001H20.554C21.7561 22.0001 22.7972 21.1249 23.1421 19.8233L25.9226 9.34274C25.9724 9.1582 25.941 8.95653 25.8394 8.80253ZM22.1075 19.4713C21.8989 20.2523 21.2751 20.7779 20.553 20.7779H5.39293C4.67075 20.7779 4.04698 20.2523 3.83941 19.4713L1.26752 9.77787H24.6794L22.1075 19.4713Z" fill="#FF784A"/>
<path d="M11.6216 0.0808152C11.3632 -0.0866484 11.0324 0.0136118 10.8832 0.308148L6.55891 8.86368C6.4119 9.15702 6.50159 9.52981 6.76105 9.69722C6.84538 9.75222 6.93725 9.77789 7.02918 9.77789C7.21622 9.77789 7.39891 9.66789 7.49945 9.46989L11.8238 0.914351C11.9708 0.621018 11.8811 0.248221 11.6216 0.0808152Z" fill="#FF784A"/>
<path d="M19.3909 8.86368L15.0666 0.308148C14.9152 0.0136118 14.5833 -0.0866484 14.3282 0.0808152C14.0677 0.248279 13.9779 0.621018 14.126 0.914351L18.4503 9.46989C18.5509 9.66789 18.7336 9.77789 18.9206 9.77789C19.0125 9.77789 19.1044 9.75222 19.1887 9.69722C19.4493 9.52981 19.539 9.15702 19.3909 8.86368Z" fill="#FF784A"/>
</g>
<defs>
<clipPath id="clip0">
<rect width="25.9459" height="22" fill="white"/>
</clipPath>
</defs>
</svg>
