<svg width="20" height="24" viewBox="0 0 20 24" fill="none" xmlns="http://www.w3.org/2000/svg">
<g clip-path="url(#clip0)">
<path d="M19.8306 17.112L8.81337 8.112C8.66314 7.98999 8.4568 7.965 8.28253 8.04802C8.10727 8.13103 7.99609 8.307 7.99609 8.50003V23.5C7.99609 23.72 8.14131 23.915 8.35163 23.979C8.39971 23.9931 8.44877 24 8.49685 24C8.66112 24 8.81835 23.919 8.91351 23.7771L12.7715 18H19.5141C19.7254 18 19.9137 17.867 19.9848 17.667C20.0569 17.468 19.9948 17.246 19.8306 17.112ZM12.5031 17C12.3359 17 12.1796 17.083 12.0865 17.222L8.99764 21.848V9.555L18.1119 17H12.5031Z" fill="#FF784A"/>
<path d="M8.49689 0C8.22046 0 7.99609 0.224016 7.99609 0.500016V4.5C7.99609 4.776 8.22046 5.00002 8.49689 5.00002C8.77332 5.00002 8.99764 4.776 8.99764 4.5V0.500016C8.99764 0.224016 8.77332 0 8.49689 0Z" fill="#FF784A"/>
<path d="M4.49142 8.00002H0.485173C0.208741 8.00002 -0.015625 8.22403 -0.015625 8.50003C-0.015625 8.77603 0.208741 9 0.485173 9H4.49142C4.76785 9 4.99222 8.77598 4.99222 8.49998C4.99222 8.22398 4.76785 8.00002 4.49142 8.00002Z" fill="#FF784A"/>
<path d="M16.5109 8.00002H12.5047C12.2283 8.00002 12.0039 8.22403 12.0039 8.50003C12.0039 8.77603 12.2283 9 12.5047 9H16.5109C16.7874 9 17.0117 8.77598 17.0117 8.49998C17.0117 8.22398 16.7874 8.00002 16.5109 8.00002Z" fill="#FF784A"/>
<path d="M6.02006 5.31802L3.18663 2.49C2.99133 2.295 2.67382 2.295 2.47851 2.49C2.2832 2.685 2.2832 3.00202 2.47851 3.19702L5.31194 6.02503C5.41011 6.12202 5.53828 6.17105 5.6665 6.17105C5.79471 6.17105 5.92288 6.12305 6.02006 6.02503C6.21537 5.82998 6.21537 5.51302 6.02006 5.31802Z" fill="#FF784A"/>
<path d="M6.02006 10.976C5.82476 10.781 5.50725 10.781 5.31194 10.976L2.47851 13.804C2.2832 13.999 2.2832 14.316 2.47851 14.511C2.57668 14.608 2.70485 14.6571 2.83306 14.6571C2.96128 14.6571 3.08945 14.6081 3.18663 14.5101L6.02006 11.6831C6.21537 11.488 6.21537 11.171 6.02006 10.976Z" fill="#FF784A"/>
<path d="M14.5162 2.49C14.3209 2.295 14.0033 2.295 13.808 2.49L10.9746 5.31802C10.7793 5.51302 10.7793 5.83003 10.9746 6.02503C11.0728 6.12202 11.2009 6.17105 11.3292 6.17105C11.4574 6.17105 11.5855 6.12305 11.6827 6.02503L14.5162 3.19702C14.7115 3.00202 14.7115 2.685 14.5162 2.49Z" fill="#FF784A"/>
</g>
<defs>
<clipPath id="clip0">
<rect width="20" height="24" fill="white"/>
</clipPath>
</defs>
</svg>
