<svg width="20" height="20" viewBox="0 0 20 20" fill="none" xmlns="http://www.w3.org/2000/svg">
<path d="M10 0.000976562C4.48596 0.000976562 0 4.48693 0 10.001C0 15.515 4.48596 20.0009 10 20.0009C15.514 20.0009 20 15.5149 20 10.001C20 4.487 15.514 0.000976562 10 0.000976562ZM10 19.0041C5.03555 19.0041 0.996717 14.9654 0.996717 10.001C0.996717 5.03659 5.03555 0.997694 10 0.997694C14.9645 0.997694 19.0033 5.03653 19.0033 10.0009C19.0033 14.9653 14.9644 19.0041 10 19.0041Z" fill="#1E1E1E"/>
<path d="M9.50008 9.50179H5.52344V10.4985H10.4968V2.91602H9.50008V9.50179Z" fill="#1E1E1E"/>
</svg>
