<svg width="20" height="18" viewBox="0 0 20 18" fill="none" xmlns="http://www.w3.org/2000/svg">
<path d="M17.0889 18.0163H18.506L17.5039 16.9902C16.9636 16.4369 16.6262 15.7173 16.5355 14.9366C17.9454 13.9891 18.9764 12.7426 19.5283 11.313C20.0798 9.88458 20.1491 8.31209 19.7287 6.76553C19.2243 4.90981 18.0412 3.21838 16.3974 2.00278C14.6111 0.681867 12.3874 -0.0163574 9.96657 -0.0163574C6.91702 -0.0163574 4.34658 0.880828 2.53325 2.57814C0.89967 4.10727 -7.62939e-06 6.16985 -7.62939e-06 8.38599C-7.62939e-06 9.46266 0.21409 10.5103 0.636301 11.4997C1.07323 12.5236 1.71302 13.4353 2.53791 14.2094C4.35366 15.9134 6.9225 16.8141 9.96661 16.8141C11.0967 16.8141 12.2759 16.6597 13.3287 16.3762C14.3252 17.423 15.6756 18.0163 17.0889 18.0163ZM9.96657 1.18582C14.8206 1.18582 17.7991 4.15011 18.5977 7.08791C19.3524 9.86414 18.2399 12.4874 15.6219 14.1052L15.3294 14.286L15.3384 14.6357C15.3562 15.3279 15.5174 15.9946 15.8058 16.5973C15.1034 16.354 14.4661 15.9128 13.9669 15.309L13.7188 15.0087L13.3507 15.1214C12.3179 15.4378 11.116 15.612 9.96657 15.612C3.92547 15.612 1.174 11.8663 1.174 8.38599C1.174 6.51155 1.93804 4.76406 3.32539 3.46547C4.91863 1.97413 7.21514 1.18582 9.96657 1.18582Z" fill="#FF784A"/>
</svg>
