<svg width="19" height="21" viewBox="0 0 19 21" fill="none" xmlns="http://www.w3.org/2000/svg">
<path d="M18.3862 3.02469H13.9455V2.31173C13.9455 1.03704 12.8924 0 11.5979 0H7.37669C6.08224 0 5.02912 1.03704 5.02912 2.31173V3.02469H0.588473C0.259373 3.02469 -0.00390625 3.28395 -0.00390625 3.60802C-0.00390625 3.9321 0.259373 4.19136 0.588473 4.19136H1.65914V17.8975C1.65914 19.6173 3.08085 21.0173 4.82727 21.0173H14.1474C15.8938 21.0173 17.3155 19.6173 17.3155 17.8975V4.19136H18.3862C18.7153 4.19136 18.9785 3.9321 18.9785 3.60802C18.9785 3.28395 18.7153 3.02469 18.3862 3.02469ZM6.21388 2.31173C6.21388 1.68086 6.73605 1.16667 7.37669 1.16667H11.5979C12.2386 1.16667 12.7608 1.68086 12.7608 2.31173V3.02469H6.21388V2.31173ZM16.1307 17.8975C16.1307 18.9735 15.24 19.8506 14.1474 19.8506H4.82727C3.73466 19.8506 2.8439 18.9735 2.8439 17.8975V4.19136H16.1351V17.8975H16.1307Z" fill="#FF784A"/>
<path d="M9.48691 17.7593C9.81602 17.7593 10.0793 17.5 10.0793 17.1759V6.86605C10.0793 6.54197 9.81602 6.28271 9.48691 6.28271C9.15781 6.28271 8.89453 6.54197 8.89453 6.86605V17.1716C8.89453 17.4957 9.15781 17.7593 9.48691 17.7593Z" fill="#FF784A"/>
<path d="M5.62363 17.1154C5.95272 17.1154 6.216 16.8562 6.216 16.5321V7.50556C6.216 7.18149 5.95272 6.92223 5.62363 6.92223C5.29453 6.92223 5.03125 7.18149 5.03125 7.50556V16.5321C5.03125 16.8562 5.29892 17.1154 5.62363 17.1154Z" fill="#FF784A"/>
<path d="M13.3541 17.1154C13.6832 17.1154 13.9465 16.8562 13.9465 16.5321V7.50556C13.9465 7.18149 13.6832 6.92223 13.3541 6.92223C13.025 6.92223 12.7617 7.18149 12.7617 7.50556V16.5321C12.7617 16.8562 13.025 17.1154 13.3541 17.1154Z" fill="#FF784A"/>
</svg>
