<svg width="14" height="16" viewBox="0 0 14 16" fill="none" xmlns="http://www.w3.org/2000/svg">
<g clip-path="url(#clip0)">
<path d="M13.5447 2.30453H10.2727V1.76132C10.2727 0.790123 9.49668 0 8.54287 0H5.43248C4.47867 0 3.70269 0.790123 3.70269 1.76132V2.30453H0.43063C0.188136 2.30453 -0.00585938 2.50206 -0.00585938 2.74897C-0.00585938 2.99588 0.188136 3.19342 0.43063 3.19342H1.21954V13.6362C1.21954 14.9465 2.26712 16.0132 3.55396 16.0132H10.4214C11.7082 16.0132 12.7558 14.9465 12.7558 13.6362V3.19342H13.5447C13.7872 3.19342 13.9812 2.99588 13.9812 2.74897C13.9812 2.50206 13.7872 2.30453 13.5447 2.30453ZM4.57566 1.76132C4.57566 1.28066 4.96042 0.888889 5.43248 0.888889H8.54287C9.01493 0.888889 9.39968 1.28066 9.39968 1.76132V2.30453H4.57566V1.76132ZM11.8828 13.6362C11.8828 14.456 11.2265 15.1243 10.4214 15.1243H3.55396C2.74887 15.1243 2.09252 14.456 2.09252 13.6362V3.19342H11.8861V13.6362H11.8828Z" fill="white"/>
<path d="M6.98923 13.5309C7.23172 13.5309 7.42572 13.3333 7.42572 13.0864V5.23127C7.42572 4.98436 7.23172 4.78683 6.98923 4.78683C6.74673 4.78683 6.55273 4.98436 6.55273 5.23127V13.0831C6.55273 13.33 6.74673 13.5309 6.98923 13.5309Z" fill="white"/>
<path d="M4.14157 13.0403C4.38406 13.0403 4.57805 12.8428 4.57805 12.5959V5.71852C4.57805 5.47161 4.38406 5.27408 4.14157 5.27408C3.89907 5.27408 3.70508 5.47161 3.70508 5.71852V12.5959C3.70508 12.8428 3.90231 13.0403 4.14157 13.0403Z" fill="white"/>
<path d="M9.83688 13.0403C10.0794 13.0403 10.2734 12.8428 10.2734 12.5959V5.71852C10.2734 5.47161 10.0794 5.27408 9.83688 5.27408C9.59439 5.27408 9.40039 5.47161 9.40039 5.71852V12.5959C9.40039 12.8428 9.59439 13.0403 9.83688 13.0403Z" fill="white"/>
</g>
<defs>
<clipPath id="clip0">
<rect width="14" height="16" fill="white"/>
</clipPath>
</defs>
</svg>
