<svg width="30" height="19" viewBox="0 0 30 19" fill="none" xmlns="http://www.w3.org/2000/svg">
<path d="M29.8884 9.22122C29.6522 8.86279 23.9747 0.468094 14.9997 0.468094C7.29842 0.468094 0.435923 8.81459 0.147173 9.17039C-0.0490576 9.41281 -0.0490576 9.76862 0.147173 10.0123C0.435923 10.3681 7.29842 18.7146 14.9997 18.7146C22.701 18.7146 29.5634 10.3681 29.8522 10.0123C30.0334 9.78817 30.0497 9.46364 29.8884 9.22122ZM14.9997 17.4113C8.82596 17.4113 2.95592 11.2727 1.46471 9.59139C2.95346 7.90882 8.81723 1.77146 14.9997 1.77146C22.2234 1.77146 27.3222 7.901 28.5672 9.5562C27.1297 11.184 21.2259 17.4113 14.9997 17.4113Z" fill="#C4C4C4"/>
<path d="M1.5 8.5C5.5 13.5 16.5 20.5 28.5 8.5" stroke="#C4C4C4"/>
</svg>
