<svg width="24" height="23" viewBox="0 0 24 23" fill="none" xmlns="http://www.w3.org/2000/svg">
<path d="M23.9588 7.0113C23.6085 3.16846 20.8794 0.380404 17.464 0.380404C15.1887 0.380404 13.1053 1.60078 11.933 3.5567C10.7713 1.57548 8.77327 0.379944 6.53435 0.379944C3.11943 0.379944 0.389891 3.168 0.0400446 7.01084C0.0123523 7.18058 -0.101186 8.0739 0.244045 9.53072C0.741583 11.632 1.89081 13.5433 3.56666 15.0567L11.9274 22.6186L20.4317 15.0572C22.1076 13.5433 23.2568 11.6325 23.7543 9.53072C24.0996 8.07436 23.986 7.18104 23.9588 7.0113ZM22.8557 9.32004C22.4016 11.2392 21.3488 12.9876 19.8142 14.3731L11.933 21.3812L4.18697 14.375C2.64958 12.9867 1.59728 11.2387 1.14266 9.31958C0.815891 7.94096 0.950198 7.16218 0.95066 7.15712L0.957583 7.11066C1.25758 3.74392 3.60266 1.29994 6.53435 1.29994C8.69758 1.29994 10.6019 2.62474 11.5056 4.75684L11.9307 5.76102L12.3557 4.75684C13.2451 2.6574 15.25 1.3004 17.4645 1.3004C20.3957 1.3004 22.7413 3.74438 23.0473 7.15482C23.0482 7.16218 23.1825 7.94142 22.8557 9.32004Z" fill="#FF784A"/>
</svg>
