<svg width="18" height="18" viewBox="0 0 18 18" fill="none" xmlns="http://www.w3.org/2000/svg">
<path d="M17.0308 1.35535e-06H0.98292C0.699879 -0.000534035 0.440394 0.157584 0.311009 0.409395C0.179838 0.664596 0.20286 0.971909 0.370437 1.20498L6.24971 9.48707C6.25167 9.48993 6.25381 9.49261 6.25578 9.49546C6.4694 9.78386 6.58486 10.1331 6.58558 10.4922V17.2445C6.58433 17.4445 6.66285 17.6366 6.80384 17.7785C6.94482 17.9203 7.13649 17.9999 7.33637 17.9999C7.43809 17.9999 7.53857 17.9796 7.63244 17.9407L10.9361 16.6809C11.2322 16.5906 11.4287 16.3113 11.4287 15.9749V10.4922C11.4292 10.1333 11.5449 9.78386 11.7583 9.49546C11.7603 9.49261 11.7624 9.48993 11.7644 9.48707L17.6435 1.20462C17.8111 0.97173 17.8341 0.664596 17.7029 0.409395C17.5735 0.157584 17.314 -0.000534035 17.0308 1.35535e-06ZM11.0216 8.95419C10.6933 9.39981 10.5157 9.93859 10.5146 10.4922V15.8639L7.49931 17.0136V10.4922C7.49823 9.93859 7.32066 9.39981 6.99211 8.95419L1.28434 0.91373H16.7296L11.0216 8.95419Z" fill="#FF784A"/>
</svg>
