<svg width="24" height="30" viewBox="0 0 24 30" fill="none" xmlns="http://www.w3.org/2000/svg">
<path d="M12 16.25C7.175 16.25 3.25 12.3238 3.25 7.50001V2.16375C3.25 1.5925 3.62125 1.10625 4.17375 0.957505C4.725 0.806255 5.29 1.03876 5.58 1.53501L8.20875 6.04001L10.8825 0.691255C11.31 -0.161245 12.6925 -0.161245 13.1188 0.691255L15.7938 6.04001L18.4213 1.53501C18.71 1.04001 19.2725 0.807505 19.8275 0.958755C20.3787 1.10751 20.75 1.5925 20.75 2.16375V7.50001C20.75 12.3238 16.825 16.25 12 16.25ZM4.5 2.16375V7.50001C4.5 11.6363 7.86375 15 12 15C16.1363 15 19.5 11.6363 19.5 7.50001V2.16375L16.8725 6.66876C16.64 7.06626 16.2063 7.34126 15.7525 7.28751C15.2938 7.27251 14.8813 7.00751 14.675 6.59751L12 1.25001L9.325 6.59876C9.11875 7.00876 8.70625 7.27376 8.2475 7.28876C7.78875 7.34251 7.36 7.06751 7.1275 6.67001L4.5 2.16375Z" fill="#FF784A"/>
<path d="M12 30C11.655 30 11.375 29.72 11.375 29.375V15.625C11.375 15.28 11.655 15 12 15C12.345 15 12.625 15.28 12.625 15.625V29.375C12.625 29.72 12.345 30 12 30Z" fill="#FF784A"/>
<path d="M12.0003 30C11.8353 30 11.6753 29.9338 11.5578 29.8175C11.4365 29.6963 11.3703 29.5313 11.3753 29.36L11.409 27.9763C11.4103 27.9338 11.4153 27.89 11.4265 27.8463C12.6115 22.8738 16.749 18.7375 21.7203 17.5525C22.329 17.4075 22.9453 17.5775 23.3728 18.0038C23.8003 18.4313 23.969 19.0488 23.824 19.655C22.639 24.6275 18.5015 28.7638 13.5303 29.9488C13.4878 29.9588 13.444 29.965 13.4003 29.9663L12.0153 30C12.0103 30 12.0053 30 12.0003 30ZM13.3853 29.3413H13.3978H13.3853ZM12.6578 28.0725L12.6415 28.7338L13.304 28.7163C17.8003 27.6175 21.5353 23.8675 22.609 19.3638C22.6528 19.1813 22.609 19.0063 22.489 18.8863C22.369 18.7663 22.194 18.7238 22.0115 18.7663C17.5065 19.8413 13.7565 23.5763 12.6578 28.0725Z" fill="#FF784A"/>
<path d="M12.0003 30C11.8353 30 11.6753 29.9338 11.5578 29.8175C11.4365 29.6963 11.3703 29.5313 11.3753 29.36L11.409 27.9763C11.4103 27.9338 11.4153 27.89 11.4265 27.8463C12.6115 22.8738 16.749 18.7375 21.7203 17.5525C22.329 17.4075 22.9453 17.5775 23.3728 18.0038C23.8003 18.4313 23.969 19.0488 23.824 19.655C22.639 24.6275 18.5015 28.7638 13.5303 29.9488C13.4878 29.9588 13.444 29.965 13.4003 29.9663L12.0153 30C12.0103 30 12.0053 30 12.0003 30ZM13.3853 29.3413H13.3978H13.3853ZM12.6578 28.0725L12.6415 28.7338L13.304 28.7163C17.8003 27.6175 21.5353 23.8675 22.609 19.3638C22.6528 19.1813 22.609 19.0063 22.489 18.8863C22.369 18.7663 22.194 18.7238 22.0115 18.7663C17.5065 19.8413 13.7565 23.5763 12.6578 28.0725Z" fill="#FF784A"/>
<path d="M11.9997 30C11.9947 30 11.9897 30 11.9847 30L10.5997 29.9662C10.556 29.965 10.5122 29.9587 10.4697 29.9487C5.49846 28.7637 1.36096 24.6262 0.175959 19.655C0.030959 19.0487 0.199709 18.4312 0.627209 18.0037C1.05471 17.575 1.67096 17.4062 2.27971 17.5525C7.25096 18.7375 11.3885 22.875 12.5735 27.8462C12.5835 27.8887 12.5897 27.9325 12.591 27.9762L12.6247 29.36C12.6285 29.5312 12.5622 29.6975 12.4422 29.8175C12.3247 29.9337 12.1647 30 11.9997 30ZM10.6972 28.7175L11.3597 28.735L11.3435 28.0737C10.2447 23.5775 6.49471 19.8425 1.99096 18.7687C1.80846 18.7262 1.63346 18.7687 1.51346 18.8887C1.39346 19.0087 1.34971 19.1825 1.39346 19.3662C2.46596 23.8687 6.19971 27.6187 10.6972 28.7175Z" fill="#FF784A"/>
</svg>
