<svg width="30" height="30" viewBox="0 0 30 30" fill="none" xmlns="http://www.w3.org/2000/svg">
<g clip-path="url(#clip0)">
<path d="M25.424 25.8558C23.9962 25.8607 22.5817 25.5809 21.2633 25.0329C19.9449 24.4849 18.7489 23.6796 17.7452 22.6641C17.704 22.6239 17.6711 22.576 17.6486 22.5231C17.6261 22.4701 17.6144 22.4132 17.6141 22.3557C17.6138 22.2982 17.625 22.2411 17.647 22.188C17.6689 22.1348 17.7013 22.0865 17.7421 22.046C17.7829 22.0055 17.8314 21.9735 17.8847 21.9519C17.9381 21.9303 17.9952 21.9195 18.0527 21.9202C18.1102 21.9209 18.167 21.933 18.2198 21.9559C18.2726 21.9788 18.3203 22.0119 18.3601 22.0535C20.1173 23.8316 22.4833 24.8772 24.9811 24.9795C24.8772 22.7328 24.0201 20.5865 22.5478 18.8862C21.0755 17.186 19.0738 16.0308 16.865 15.6067C16.8091 15.5962 16.7558 15.5748 16.7081 15.5436C16.6604 15.5125 16.6194 15.4723 16.5873 15.4253C16.5552 15.3783 16.5326 15.3254 16.5209 15.2697C16.5093 15.214 16.5087 15.1565 16.5192 15.1006C16.5297 15.0446 16.5512 14.9913 16.5823 14.9436C16.6134 14.896 16.6537 14.8549 16.7007 14.8228C16.7477 14.7907 16.8005 14.7682 16.8562 14.7565C16.912 14.7448 16.9694 14.7442 17.0254 14.7547C19.5073 15.2304 21.7463 16.5553 23.3579 18.5019C24.9695 20.4484 25.8532 22.8953 25.8573 25.4224C25.8573 25.5374 25.8117 25.6476 25.7304 25.7289C25.6491 25.8101 25.5389 25.8558 25.424 25.8558Z" fill="#FF784A"/>
<path d="M4.57698 25.8558C4.46205 25.8558 4.35182 25.8102 4.27055 25.7289C4.18928 25.6476 4.14362 25.5374 4.14362 25.4224C4.13875 23.9947 4.4185 22.5802 4.96652 21.2618C5.51454 19.9433 6.31983 18.7473 7.33535 17.7437C7.37547 17.7024 7.42341 17.6696 7.47636 17.6471C7.5293 17.6246 7.5862 17.6129 7.64373 17.6126C7.70126 17.6123 7.75827 17.6235 7.81144 17.6454C7.8646 17.6674 7.91286 17.6998 7.9534 17.7406C7.99394 17.7814 8.02594 17.8299 8.04754 17.8832C8.06914 17.9365 8.07991 17.9936 8.07922 18.0512C8.07852 18.1087 8.06638 18.1655 8.0435 18.2183C8.02063 18.2711 7.98747 18.3188 7.94596 18.3586C6.16782 20.1157 5.12216 22.4818 5.01988 24.9795C7.26658 24.8757 9.41292 24.0185 11.1132 22.5463C12.8134 21.074 13.9686 19.0723 14.3927 16.8635C14.4032 16.8076 14.4247 16.7542 14.4558 16.7066C14.4869 16.6589 14.5271 16.6179 14.5741 16.5858C14.6212 16.5536 14.674 16.5311 14.7297 16.5194C14.7854 16.5077 14.8429 16.5071 14.8989 16.5177C14.9548 16.5282 15.0081 16.5496 15.0558 16.5808C15.1034 16.6119 15.1445 16.6521 15.1766 16.6991C15.2087 16.7461 15.2313 16.799 15.2429 16.8547C15.2546 16.9104 15.2552 16.9679 15.2447 17.0238C14.769 19.5058 13.4441 21.7447 11.4975 23.3563C9.55098 24.9679 7.10411 25.8517 4.57698 25.8558Z" fill="#FF784A"/>
<path d="M13.0583 15.2514C13.0313 15.2514 13.0043 15.2489 12.9777 15.244C10.4956 14.7688 8.25627 13.4443 6.64427 11.498C5.03227 9.55161 4.1481 7.1048 4.14355 4.57759C4.14355 4.46266 4.18921 4.35243 4.27048 4.27116C4.35176 4.18989 4.46198 4.14423 4.57692 4.14423C6.00471 4.13936 7.41915 4.41912 8.7376 4.96713C10.056 5.51515 11.252 6.32045 12.2557 7.33596C12.2969 7.37609 12.3298 7.42402 12.3523 7.47697C12.3748 7.52991 12.3865 7.58681 12.3868 7.64434C12.3871 7.70187 12.3759 7.75888 12.3539 7.81205C12.3319 7.86522 12.2996 7.91348 12.2588 7.95401C12.218 7.99455 12.1695 8.02655 12.1161 8.04815C12.0628 8.06975 12.0057 8.08052 11.9482 8.07983C11.8907 8.07914 11.8339 8.067 11.7811 8.04412C11.7283 8.02124 11.6806 7.98808 11.6408 7.94657C9.88363 6.16843 7.51758 5.12277 5.01982 5.02049C5.12371 7.26719 5.98082 9.41353 7.4531 11.1138C8.92537 12.814 10.9271 13.9692 13.1359 14.3933C13.2421 14.4131 13.337 14.4719 13.4021 14.5581C13.4672 14.6443 13.4978 14.7518 13.4878 14.8593C13.4778 14.9669 13.428 15.0669 13.3482 15.1396C13.2683 15.2124 13.1642 15.2527 13.0561 15.2527L13.0583 15.2514Z" fill="#FF784A"/>
<path d="M15.1818 13.4919C15.1548 13.4919 15.1278 13.4895 15.1012 13.4845C15.0452 13.4741 14.9918 13.4528 14.944 13.4217C14.8963 13.3906 14.8551 13.3504 14.8229 13.3034C14.7907 13.2563 14.7681 13.2034 14.7563 13.1477C14.7446 13.0919 14.744 13.0344 14.7545 12.9784C15.2298 10.4961 16.5544 8.25669 18.5009 6.64467C20.4474 5.03265 22.8944 4.14857 25.4218 4.14423C25.5367 4.14423 25.647 4.18988 25.7282 4.27116C25.8095 4.35243 25.8552 4.46266 25.8552 4.57759C25.86 6.00538 25.5803 7.41982 25.0323 8.73827C24.4842 10.0567 23.679 11.2527 22.6634 12.2564C22.6233 12.2976 22.5754 12.3304 22.5224 12.3529C22.4695 12.3754 22.4126 12.3872 22.3551 12.3875C22.2975 12.3877 22.2405 12.3766 22.1873 12.3546C22.1342 12.3326 22.0859 12.3003 22.0454 12.2594C22.0048 12.2186 21.9728 12.1701 21.9512 12.1168C21.9296 12.0635 21.9189 12.0064 21.9196 11.9489C21.9203 11.8914 21.9324 11.8345 21.9553 11.7818C21.9782 11.729 22.0113 11.6813 22.0528 11.6414C23.831 9.8843 24.8766 7.51825 24.9789 5.02049C22.7322 5.12438 20.5859 5.98149 18.8856 7.45377C17.1854 8.92604 16.0302 10.9278 15.6061 13.1365C15.5879 13.2359 15.5356 13.3259 15.4581 13.3908C15.3806 13.4556 15.2829 13.4914 15.1818 13.4919Z" fill="#FF784A"/>
<path d="M14.999 30.1678C14.884 30.1678 14.7738 30.1221 14.6926 30.0408C13.6812 29.034 12.8796 27.8367 12.3341 26.518C11.7886 25.1993 11.5101 23.7856 11.5147 22.3586C11.5147 22.2436 11.5604 22.1334 11.6416 22.0521C11.7229 21.9708 11.8331 21.9252 11.9481 21.9252C12.063 21.9252 12.1732 21.9708 12.2545 22.0521C12.3358 22.1334 12.3814 22.2436 12.3814 22.3586C12.373 24.8576 13.3078 27.2679 14.999 29.1078C16.5169 27.4475 17.4301 25.3237 17.591 23.0799C17.7518 20.8361 17.1508 18.6036 15.8852 16.7439C15.8206 16.6488 15.7964 16.5319 15.818 16.419C15.8396 16.306 15.9051 16.2063 16.0002 16.1417C16.0954 16.0771 16.2122 16.053 16.3252 16.0745C16.4381 16.0961 16.5378 16.1617 16.6024 16.2568C18.0251 18.3461 18.6742 20.8664 18.4378 23.3831C18.2014 25.8998 17.0944 28.2551 15.3075 30.043C15.2668 30.0831 15.2186 30.1148 15.1657 30.1362C15.1127 30.1576 15.0561 30.1683 14.999 30.1678Z" fill="#FF784A"/>
<path d="M7.64117 18.4842C6.21414 18.4888 4.80038 18.2103 3.48171 17.6648C2.16305 17.1194 0.965681 16.3177 -0.0410856 15.3064C-0.122329 15.2251 -0.167969 15.1149 -0.167969 15C-0.167969 14.8851 -0.122329 14.7749 -0.0410856 14.6936C0.965681 13.6822 2.16305 12.8806 3.48171 12.3351C4.80038 11.7897 6.21414 11.5112 7.64117 11.5157C7.7561 11.5157 7.86633 11.5614 7.9476 11.6427C8.02887 11.7239 8.07453 11.8342 8.07453 11.9491C8.07453 12.064 8.02887 12.1743 7.9476 12.2555C7.86633 12.3368 7.7561 12.3825 7.64117 12.3825C5.1421 12.3741 2.73187 13.3088 0.891948 15C2.55219 16.5179 4.67607 17.4312 6.91986 17.592C9.16365 17.7529 11.3961 17.1518 13.2558 15.8862C13.3509 15.8216 13.4678 15.7975 13.5807 15.819C13.6937 15.8406 13.7934 15.9062 13.858 16.0013C13.9226 16.0964 13.9468 16.2133 13.9252 16.3262C13.9036 16.4391 13.838 16.5389 13.7429 16.6034C11.946 17.833 9.81849 18.4888 7.64117 18.4842Z" fill="#FF784A"/>
<path d="M13.758 13.9339C13.6869 13.9341 13.6169 13.9168 13.5541 13.8835C13.4913 13.8503 13.4377 13.8021 13.3979 13.7432C11.976 11.6538 11.3276 9.13387 11.5644 6.61767C11.8011 4.10148 12.9083 1.74671 14.6949 -0.0407804C14.7762 -0.122024 14.8864 -0.167664 15.0013 -0.167664C15.1162 -0.167664 15.2264 -0.122024 15.3077 -0.0407804C16.3191 0.965986 17.1207 2.16336 17.6662 3.48202C18.2116 4.80068 18.4901 6.21445 18.4856 7.64147C18.4856 7.75641 18.4399 7.86663 18.3586 7.9479C18.2774 8.02918 18.1671 8.07483 18.0522 8.07483C17.9373 8.07483 17.827 8.02918 17.7458 7.9479C17.6645 7.86663 17.6188 7.75641 17.6188 7.64147C17.6272 5.14241 16.6925 2.73217 15.0013 0.892253C13.4834 2.5525 12.5701 4.67637 12.4093 6.92016C12.2485 9.16396 12.8495 11.3964 14.1151 13.2561C14.1595 13.3212 14.1854 13.3971 14.1899 13.4758C14.1944 13.5545 14.1774 13.6329 14.1406 13.7026C14.1039 13.7723 14.0489 13.8306 13.9815 13.8714C13.914 13.9122 13.8368 13.9338 13.758 13.9339Z" fill="#FF784A"/>
<path d="M22.3581 18.4842C22.2432 18.4842 22.133 18.4386 22.0517 18.3573C21.9704 18.276 21.9248 18.1658 21.9248 18.0508C21.9248 17.9359 21.9704 17.8257 22.0517 17.7444C22.133 17.6631 22.2432 17.6175 22.3581 17.6175C24.8572 17.6259 27.2674 16.6911 29.1073 15C27.4471 13.482 25.3232 12.5688 23.0794 12.4079C20.8356 12.2471 18.6032 12.8481 16.7435 14.1137C16.6483 14.1783 16.5315 14.2025 16.4185 14.1809C16.3056 14.1593 16.2059 14.0938 16.1413 13.9987C16.0767 13.9036 16.0525 13.7867 16.0741 13.6738C16.0957 13.5608 16.1612 13.4611 16.2564 13.3965C18.3457 11.9738 20.866 11.3247 23.3827 11.5611C25.8993 11.7975 28.2547 12.9045 30.0425 14.6914C30.1238 14.7727 30.1694 14.8829 30.1694 14.9978C30.1694 15.1127 30.1238 15.2229 30.0425 15.3042C29.0357 16.3162 27.8381 17.1184 26.519 17.6642C25.1999 18.2101 23.7857 18.4888 22.3581 18.4842Z" fill="#FF784A"/>
<path d="M14.9997 17.3835C14.5283 17.3835 14.0675 17.2437 13.6755 16.9818C13.2835 16.7199 12.978 16.3477 12.7976 15.9122C12.6172 15.4766 12.57 14.9974 12.662 14.535C12.754 14.0727 12.981 13.648 13.3143 13.3146C13.6477 12.9813 14.0724 12.7543 14.5347 12.6623C14.9971 12.5703 15.4763 12.6175 15.9118 12.798C16.3474 12.9784 16.7196 13.2839 16.9815 13.6758C17.2434 14.0678 17.3832 14.5286 17.3832 15C17.3825 15.632 17.1312 16.2378 16.6843 16.6847C16.2375 17.1315 15.6317 17.3828 14.9997 17.3835ZM14.9997 13.4832C14.6997 13.4832 14.4065 13.5722 14.157 13.7389C13.9076 13.9055 13.7132 14.1424 13.5984 14.4196C13.4836 14.6967 13.4536 15.0017 13.5121 15.2959C13.5706 15.5902 13.7151 15.8604 13.9272 16.0725C14.1393 16.2847 14.4096 16.4291 14.7038 16.4877C14.998 16.5462 15.303 16.5161 15.5802 16.4013C15.8573 16.2865 16.0942 16.0921 16.2609 15.8427C16.4275 15.5933 16.5165 15.3 16.5165 15C16.5165 14.5978 16.3567 14.212 16.0722 13.9275C15.7878 13.6431 15.402 13.4832 14.9997 13.4832Z" fill="#FF784A"/>
</g>
<defs>
<clipPath id="clip0">
<rect width="30" height="30" fill="white"/>
</clipPath>
</defs>
</svg>
