<svg width="19" height="19" viewBox="0 0 19 19" fill="none" xmlns="http://www.w3.org/2000/svg">
<path d="M7.84967 0C12.1781 0 15.6995 3.47231 15.6995 7.7403C15.6995 9.78028 14.8946 11.6381 13.582 13.0222L19 18.3646L18.3557 19L12.9222 13.6423C11.5531 14.7882 9.782 15.4806 7.84973 15.4806C3.52136 15.4806 0 12.0083 0 7.7403C0 3.47231 3.5213 0 7.84967 0ZM7.84967 14.5821C11.6756 14.5821 14.7882 11.5129 14.7882 7.7403C14.7882 3.9677 11.6756 0.898538 7.84967 0.898538C4.02377 0.898538 0.911186 3.9677 0.911186 7.7403C0.911186 11.5129 4.02383 14.5821 7.84967 14.5821Z" fill="#FF784A"/>
</svg>
