<svg width="25" height="25" viewBox="0 0 25 25" fill="none" xmlns="http://www.w3.org/2000/svg">
<path d="M10.1855 0C15.8014 0 20.3701 4.56883 20.3701 10.1846C20.3701 12.8688 19.3258 15.3133 17.6229 17.1345L24.6523 24.164L23.8164 25L16.7668 17.9504C14.9905 19.4581 12.6926 20.3692 10.1856 20.3692C4.56979 20.3692 0.00103951 15.8004 0.00103951 10.1846C0.00103951 4.56883 4.56971 0 10.1855 0ZM10.1855 19.1869C15.1494 19.1869 19.1878 15.1486 19.1878 10.1846C19.1878 5.22066 15.1494 1.18229 10.1855 1.18229C5.22162 1.18229 1.18325 5.22066 1.18325 10.1846C1.18325 15.1486 5.2217 19.1869 10.1855 19.1869Z" fill="#4F4F51"/>
</svg>
