<svg width="17" height="16" viewBox="0 0 17 16" fill="none" xmlns="http://www.w3.org/2000/svg">
<path d="M16.9708 4.87744C16.7227 2.20416 14.7896 0.26464 12.3704 0.26464C10.7586 0.26464 9.2829 1.1136 8.45252 2.47424C7.62965 1.096 6.2144 0.26432 4.6285 0.26432C2.2096 0.26432 0.276173 2.20384 0.0283649 4.87712C0.00874954 4.9952 -0.0716735 5.61664 0.172865 6.63008C0.525288 8.09184 1.33933 9.42144 2.52638 10.4742L8.4486 15.7347L14.4725 10.4746C15.6595 9.42144 16.4736 8.09216 16.826 6.63008C17.0705 5.61696 16.9901 4.99552 16.9708 4.87744ZM16.1895 6.48352C15.8678 7.81856 15.1221 9.03488 14.0351 9.99872L8.45252 14.8739L2.96577 10C1.87679 9.03424 1.1314 7.81824 0.809384 6.4832C0.577923 5.52416 0.673057 4.9824 0.673384 4.97888L0.678288 4.94656C0.890788 2.60448 2.55188 0.90432 4.6285 0.90432C6.16079 0.90432 7.50967 1.82592 8.14979 3.30912L8.45088 4.00768L8.75198 3.30912C9.38196 1.84864 10.8021 0.90464 12.3707 0.90464C14.447 0.90464 16.1084 2.6048 16.3252 4.97728C16.3258 4.9824 16.4209 5.52448 16.1895 6.48352Z" fill="#FF784A"/>
</svg>
