<svg width="128" height="76" viewBox="0 0 128 76" fill="none" xmlns="http://www.w3.org/2000/svg">
<path d="M41.0808 15.2223C41.7822 13.5841 41.7221 11.5975 42.097 9.84452C42.161 9.54597 41.8005 9.39467 41.6268 9.5803C39.6036 11.7526 35.6121 15.1355 37.2421 18.8404C37.2277 18.8834 37.2238 18.9274 37.229 18.972C36.4245 20.5384 35.5663 22.0706 34.686 23.5883C35.2124 20.827 34.7487 17.9007 33.6881 15.2101C33.598 14.9791 33.2441 14.8806 33.1513 15.1536C32.1182 18.2648 31.8321 21.9638 33.773 24.8713C33.7639 24.9421 33.7796 25.0067 33.8083 25.0635C33.8083 25.0711 33.8109 25.0781 33.8109 25.0846C32.5466 27.2254 31.2601 29.3493 30.0349 31.5096C30.6436 28.71 30.4215 25.7993 29.6862 22.8001C29.6091 22.4889 29.2225 22.5092 29.105 22.7387C27.6095 25.6648 24.8888 31.572 28.4101 34.4885C27.1288 36.9499 25.9768 39.4883 25.0756 42.1808C23.6049 36.5772 22.6161 30.9009 21.9448 25.1922C21.9579 25.1608 21.9631 25.1253 21.9605 25.0863C26.0656 23.7227 29.455 20.9668 30.27 16.1713C30.3066 15.9559 30.0832 15.6832 29.8743 15.7871C26.4143 17.5081 22.7886 19.298 21.7267 23.2612C21.5308 21.3958 21.3649 19.5278 21.2303 17.6582C21.2356 17.6434 21.2434 17.6318 21.2434 17.6139C21.2447 17.5963 21.2499 17.5801 21.2512 17.5633C25.073 17.039 27.3156 13.5203 28.6988 9.93452C28.8163 9.62981 28.4989 9.30992 28.2325 9.48978C25.8736 11.0741 22.193 12.7296 21.1037 15.7794C21.0109 14.2603 20.9299 12.7402 20.8686 11.2217C20.9038 11.2167 20.9391 11.2104 20.9743 11.1903C24.5414 9.23105 22.8957 3.5566 21.9135 0.207364C21.8442 -0.0268613 21.5229 -0.0565979 21.4341 0.157191C20.1228 3.34569 17.6816 7.61375 20.3827 10.9516C20.3761 12.3552 20.3957 13.7611 20.4415 15.1689C19.872 13.8812 19.0818 12.7229 18.1322 11.6856C16.7934 10.2215 15.021 9.81884 13.3714 8.97993C13.1076 8.84579 12.9234 9.13464 13.0436 9.38524C13.9043 11.163 14.4032 13.3571 15.729 14.8538C17.0886 16.3909 18.686 16.6957 20.4558 17.3456C20.4846 17.3552 20.5068 17.353 20.5316 17.3561C20.6152 19.0329 20.7445 20.7118 20.8986 22.3875C20.3161 21.3336 19.5598 20.387 18.6338 19.8066C17.8762 19.3325 17.0494 18.9775 16.2592 18.5854C15.8635 18.3873 14.3288 17.8612 13.997 17.3309C13.9788 17.2888 13.9579 17.2453 13.9396 17.2053C13.7776 16.859 13.3322 16.9968 13.4237 17.3776C13.4472 17.48 13.4968 17.5798 13.5608 17.6761C14.9766 20.8358 17.2401 27.5761 21.2656 25.8622C21.9135 31.2362 22.9061 36.5835 24.2266 41.8339C23.2052 39.9242 22.0898 38.0034 20.8816 36.1255C20.8829 36.1207 20.8868 36.1172 20.8881 36.1106C21.6862 33.3177 21.5869 30.1087 19.582 27.766C19.4109 27.5651 19.1301 27.716 19.0831 27.9313C18.6403 29.9777 18.8428 32.0199 19.4619 34.0136C17.8971 31.7742 16.1939 29.6364 14.3549 27.7016C14.3562 27.6995 14.3575 27.6988 14.3588 27.6976C16.0725 24.2699 13.2526 20.3895 10.8493 18.0136C10.6664 17.8332 10.3556 17.9812 10.3843 18.2466C10.558 19.8639 10.8401 21.4109 11.3704 22.9588C11.7819 24.1578 12.414 25.2558 13.0292 26.3605C11.2516 24.6507 9.35247 23.1464 7.33712 21.9227C7.33582 21.9044 7.33582 21.8894 7.33059 21.8698C6.92308 20.3954 6.51688 18.7426 4.95606 18.2489C3.407 17.7593 1.83051 18.1353 0.280145 18.2253C0.0345938 18.2401 -0.11561 18.6045 0.112961 18.7918C2.11525 20.4393 4.18676 23.6882 6.95835 22.4201C6.99231 22.4028 7.01843 22.3782 7.04325 22.3541C9.19704 23.7896 11.2111 25.5151 13.0893 27.4411C10.8519 26.9997 8.1221 27.9976 6.46594 29.2497C6.31443 29.365 6.32749 29.5693 6.45027 29.7145C8.45647 32.066 12.845 31.0414 13.9997 28.4014C16.0019 30.5736 17.8449 32.9627 19.5311 35.4576C17.3198 34.5644 14.893 34.9424 12.7823 35.7625C12.589 35.8375 12.4872 36.16 12.6922 36.3203C14.9388 38.0676 18.6037 39.258 20.2521 36.5479C22.0062 39.2466 23.584 42.0384 24.9841 44.7852C24.9933 44.8025 25.005 44.8097 25.0155 44.8242C26.0721 48.6299 27.3508 52.494 28.8829 56.2567C27.4083 54.7416 25.6424 53.6795 23.7838 52.8095C24.4356 49.376 21.8625 45.4814 18.6011 44.9164C18.3765 44.8756 18.2197 45.0702 18.2798 45.3074C18.9237 47.8136 20.0548 50.2899 21.9095 51.9977C21.6431 51.8896 21.3766 51.7826 21.1089 51.6787C19.4893 51.0524 17.8775 50.4503 16.3167 49.7513C16.305 49.6785 16.2684 49.6092 16.2109 49.5593C16.8522 45.4074 14.432 41.0402 11.2842 38.5735C11.0413 38.3843 10.7801 38.5845 10.8428 38.8836C11.5807 42.452 12.3174 46.2292 14.7128 48.9855C12.7249 47.9589 10.861 46.6878 9.23361 44.8842C9.23492 44.8735 9.23884 44.8678 9.24015 44.8572C9.52619 40.2551 6.11459 38.9258 2.60243 37.6582C2.39084 37.5828 2.25892 37.829 2.30594 38.0183C3.18757 41.5557 4.89598 44.9679 8.66414 45.0353C8.69027 45.0362 8.71117 45.0299 8.73076 45.023C10.3059 47.0537 12.239 48.4157 14.3223 49.4917C11.6526 49.7165 9.19182 50.9459 6.75851 52.0572C6.52733 52.1639 6.49206 52.4975 6.73631 52.6485C8.58317 53.7924 10.6259 54.3889 12.6857 54.0537C14.637 53.7366 15.4834 52.1519 15.9353 50.2609C17.9089 51.1383 19.9673 51.8578 21.9526 52.7098C19.2712 53.2147 17.1148 55.6903 15.6637 57.9906C15.5474 58.1757 15.6049 58.4367 15.8321 58.5001C19.0413 59.3975 23.008 56.95 23.4965 53.4152C25.7535 54.5135 27.855 55.8982 29.549 58.0409C29.5882 58.0904 29.6326 58.122 29.6783 58.1444C30.91 60.9796 32.2997 63.7359 33.8527 66.3492C32.9058 65.9848 31.9288 65.8116 30.9427 65.7003C30.6828 63.4095 29.485 61.389 27.3352 60.6681C27.1823 60.6171 26.9773 60.7454 26.9668 60.922C26.8911 62.2918 27.8197 64.4209 29.1037 65.5362C27.7205 65.4236 26.336 65.2849 24.9946 64.785C23.6898 62.1831 20.6282 63.1559 18.481 63.0488C18.2681 63.0382 18.1688 63.3204 18.2811 63.4994C19.8446 65.9814 22.6109 67.0639 24.8379 65.2474C26.3386 65.9942 27.9268 66.1552 29.5125 66.3044C28.2416 67.041 27.4801 68.6633 26.2237 69.5377C26.0264 69.677 26.0996 70.0269 26.3373 70.0878C29.0723 70.7791 31.1294 69.329 31.9236 66.606C32.7608 66.7616 33.5823 66.9983 34.3752 67.4089C34.3974 67.597 34.5423 67.7142 34.6952 67.7348C35.744 69.397 36.862 70.9961 38.061 72.5051C38.3405 72.8573 38.8669 72.5178 38.6057 72.1197C37.4184 70.3102 36.2651 68.5076 35.1614 66.6796C35.4279 65.4996 35.9281 64.4708 36.5381 63.5097C38.9753 64.6945 41.7548 62.5719 42.3974 60.0885C42.4797 59.7675 42.1152 59.6091 41.901 59.7202C40.5962 60.3981 39.1765 60.8875 37.8952 61.6194C39.0119 60.1817 40.1939 58.7752 40.9463 57.0749C42.1152 56.5084 43.0256 55.8063 43.5729 54.5131C44.141 53.1727 44.1672 51.5431 44.2508 50.0731C44.269 49.7602 43.9608 49.5751 43.7479 49.7912C42.2093 51.3506 39.2457 53.98 40.561 56.6777C40.5257 56.7321 40.5139 56.7988 40.5231 56.8672C39.6401 58.5094 38.4019 59.9114 37.2617 61.3696C37.4694 59.6523 36.7262 57.6463 35.8093 56.3022C35.6656 56.0935 35.3796 56.1469 35.3286 56.3897C34.8623 58.6359 34.5646 61.0481 36.0836 62.9889C35.4997 63.8791 35.0008 64.8215 34.6821 65.878C33.2545 63.4703 31.921 61.0075 30.7298 58.4029C30.5182 57.9403 30.317 57.4749 30.1133 57.0077C30.7807 55.6556 31.6349 54.454 32.5871 53.332C35.1641 54.8108 39.661 54.5547 40.1182 50.9432C40.1482 50.6954 39.9262 50.4407 39.6898 50.5303C37.9879 51.1725 36.1267 51.0035 34.4026 51.3794C35.4775 50.3014 36.6047 49.2676 37.694 48.2053C41.6281 49.7654 45.6509 48.5096 47.8517 44.7873C48.0189 44.5042 47.6819 44.2117 47.4338 44.273C44.8947 44.9036 42.2641 44.9499 39.8752 45.9211C41.4191 44.1459 42.7121 42.1803 43.4018 39.7407C43.4279 39.7317 43.4527 39.7243 43.4788 39.7052C46.142 37.639 46.5208 33.602 45.8677 30.2302C45.8194 29.9824 45.5033 29.761 45.3335 30.0164C43.8367 32.278 40.8117 36.4754 43.0139 39.419C42.0447 41.9264 40.5505 43.9433 38.8695 45.7856C39.9406 42.8256 39.3711 39.262 37.9748 36.3125C37.8442 36.0375 37.5556 36.001 37.4067 36.2526C35.343 39.7153 35.5833 43.7591 37.1245 47.599C35.8054 48.9137 34.447 50.1918 33.1905 51.5615C33.7469 48.7814 32.4486 45.4436 30.688 43.3639C30.5365 43.1857 30.2831 43.3196 30.2439 43.5135C29.8155 45.5844 29.3962 47.5164 30.0336 49.6423C30.3915 50.8326 31.025 52.2052 32.0764 52.8453C31.2183 53.8902 30.4359 55.0048 29.7841 56.2415C28.0457 52.1231 26.6338 47.8616 25.4439 43.5522C26.3712 40.4749 27.6617 37.6248 29.1089 34.8687C30.6606 36.0531 31.8243 36.4437 33.7169 35.9345C35.9308 35.3386 37.7097 33.46 38.863 31.4513C39.0341 31.154 38.6906 30.8874 38.4437 30.9332C36.5381 31.29 34.5802 31.3556 32.7255 31.9398C31.7708 32.2384 30.8695 32.7354 29.9814 33.2433C31.3985 30.6712 32.9162 28.1591 34.3634 25.5985C37.8063 27.1687 42.8715 24.4262 43.6016 20.6485C43.6473 20.4141 43.4632 20.1825 43.2398 20.1981C40.5649 20.3854 37.792 21.331 35.7126 23.1354C36.3997 21.8416 37.0579 20.5291 37.6588 19.1795C38.9727 18.03 40.352 16.9224 41.0808 15.2223Z" fill="#4F4F51"/>
<path d="M86.8149 60.7499C86.1148 62.388 86.1749 64.3746 85.7987 66.1275C85.7347 66.4261 86.0965 66.5774 86.2689 66.3918C88.2934 64.2195 92.2836 60.8366 90.6549 57.1317C90.6693 57.0887 90.6732 57.0446 90.6667 57.0002C91.4712 55.4337 92.3293 53.9015 93.2097 52.3838C92.6846 55.1451 93.147 58.0715 94.2076 60.762C94.2977 60.993 94.6529 61.0915 94.7444 60.8185C95.7775 57.7073 96.0636 54.0083 94.1227 51.1008C94.1318 51.0299 94.1174 50.9655 94.0874 50.9086C94.0874 50.901 94.0861 50.8941 94.0848 50.8875C95.3491 48.7466 96.6356 46.6229 97.8608 44.4626C97.2521 47.2621 97.4742 50.1728 98.2095 53.172C98.2866 53.4831 98.6745 53.4629 98.792 53.2334C100.288 50.3073 103.008 44.4001 99.4869 41.4837C100.768 39.0222 101.919 36.4838 102.82 33.7912C104.292 39.3949 105.28 45.0712 105.952 50.78C105.939 50.8111 105.934 50.8468 105.937 50.8858C101.831 52.2494 98.442 55.0053 97.6257 59.8008C97.5891 60.0163 97.8138 60.2889 98.0227 60.185C101.481 58.4639 105.108 56.6741 106.169 52.7107C106.365 54.5763 106.531 56.4443 106.665 58.3139C106.661 58.3287 106.654 58.3403 106.652 58.3582C106.651 58.3756 106.646 58.3919 106.644 58.4088C102.824 58.9332 100.58 62.4518 99.1969 66.0375C99.0807 66.3423 99.3968 66.6622 99.6632 66.4822C102.023 64.898 105.704 63.2425 106.792 60.1927C106.886 61.7118 106.966 63.2317 107.028 64.7504C106.993 64.7554 106.957 64.7615 106.923 64.7817C103.354 66.7411 105 72.4155 105.984 75.7647C106.051 75.999 106.373 76.0287 106.462 75.8149C107.774 72.6264 110.215 68.3584 107.513 65.0205C107.52 63.6167 107.5 62.2109 107.456 60.8032C108.025 62.0909 108.815 63.2492 109.763 64.2865C111.104 65.7506 112.876 66.1533 114.524 66.9922C114.788 67.1262 114.974 66.8375 114.852 66.5869C113.993 64.809 113.494 62.615 112.167 61.1182C110.807 59.5811 109.21 59.2764 107.44 58.6265C107.412 58.6169 107.39 58.6192 107.365 58.616C107.281 56.9392 107.153 55.2604 106.998 53.5846C107.58 54.6385 108.337 55.5851 109.263 56.1656C110.021 56.6396 110.846 56.9947 111.636 57.3867C112.032 57.5848 113.568 58.1109 113.899 58.6412C113.918 58.6833 113.938 58.7268 113.957 58.7667C114.119 59.113 114.563 58.9753 114.473 58.5945C114.45 58.4921 114.4 58.3923 114.336 58.296C112.919 55.1363 110.656 48.396 106.63 50.1099C105.982 44.736 104.991 39.3886 103.67 34.1382C104.69 36.0479 105.806 37.9687 107.015 39.8466C107.014 39.8514 107.009 39.855 107.008 39.8615C106.211 42.6544 106.31 45.8635 108.314 48.2061C108.485 48.4071 108.767 48.2561 108.814 48.0408C109.255 45.9943 109.054 43.9522 108.435 41.9585C109.999 44.1979 111.703 46.3356 113.541 48.2706C113.539 48.2727 113.538 48.2732 113.538 48.2745C111.823 51.7022 114.643 55.5826 117.048 57.9585C117.231 58.1389 117.54 57.9909 117.511 57.7255C117.339 56.1082 117.057 54.5611 116.525 53.0133C116.114 51.8143 115.482 50.7163 114.868 49.6116C116.645 51.3214 118.545 52.8258 120.56 54.0494C120.561 54.0678 120.561 54.0827 120.565 54.1023C120.974 55.5766 121.38 57.2295 122.94 57.7233C124.49 58.2128 126.066 57.8368 127.616 57.7468C127.861 57.732 128.011 57.3676 127.784 57.1801C125.78 55.5327 123.709 52.2838 120.939 53.552C120.903 53.5693 120.879 53.5939 120.852 53.618C118.699 52.1826 116.685 50.457 114.806 48.531C117.044 48.9724 119.775 47.9745 121.43 46.7223C121.583 46.6071 121.57 46.4028 121.445 46.2576C119.439 43.9061 115.051 44.9308 113.896 47.5708C111.894 45.3985 110.051 43.0093 108.366 40.5144C110.576 41.4077 113.003 41.0298 115.115 40.2096C115.308 40.1346 115.41 39.8121 115.203 39.6518C112.958 37.9045 109.292 36.7141 107.645 39.4242C105.89 36.7255 104.312 33.9337 102.912 31.1868C102.904 31.1696 102.891 31.1624 102.882 31.1479C101.825 27.3423 100.546 23.4781 99.0128 19.7153C100.489 21.2304 102.253 22.2927 104.113 23.1625C103.461 26.5961 106.034 30.4907 109.295 31.0557C109.521 31.0965 109.676 30.9019 109.616 30.6648C108.972 28.1585 107.841 25.6822 105.986 23.9744C106.253 24.0824 106.519 24.1895 106.788 24.2933C108.406 24.9197 110.019 25.5216 111.58 26.2208C111.591 26.2936 111.627 26.3629 111.686 26.4127C111.045 30.5647 113.465 34.9319 116.613 37.3986C116.854 37.5878 117.116 37.3876 117.054 37.0885C116.315 33.5201 115.578 29.7429 113.184 26.9866C115.172 28.0132 117.036 29.2843 118.662 31.0878C118.661 31.0986 118.657 31.1043 118.656 31.1149C118.37 35.717 121.781 37.0464 125.295 38.3139C125.505 38.3894 125.637 38.1431 125.59 37.9538C124.708 34.4164 123 31.0042 119.232 30.9369C119.207 30.9359 119.186 30.9422 119.165 30.9492C117.59 28.9184 115.657 27.5564 113.573 26.4804C116.244 26.2556 118.705 25.0261 121.137 23.9149C121.37 23.8082 121.404 23.4747 121.161 23.3236C119.313 22.1797 117.27 21.5832 115.211 21.9184C113.26 22.2356 112.414 23.8201 111.962 25.7112C109.987 24.8338 107.928 24.1143 105.944 23.2623C108.625 22.7574 110.782 20.2818 112.233 17.9815C112.348 17.7964 112.291 17.5353 112.064 17.4721C108.856 16.5746 104.888 19.0222 104.399 22.5568C102.142 21.4586 100.041 20.0739 98.348 17.9311C98.3088 17.8817 98.2644 17.8501 98.2187 17.8277C96.9857 14.9924 95.596 12.2362 94.0443 9.62277C94.9899 9.98721 95.9669 10.1605 96.953 10.2719C97.2143 12.5625 98.412 14.583 100.561 15.3039C100.713 15.355 100.92 15.2267 100.929 15.0502C101.005 13.6803 100.076 11.5512 98.7933 10.4359C100.177 10.5484 101.56 10.6873 102.901 11.187C104.206 13.789 107.269 12.8162 109.416 12.9233C109.629 12.9338 109.727 12.6516 109.615 12.4726C108.051 9.99061 105.285 8.90818 103.058 10.7247C101.558 9.97791 99.9702 9.81691 98.3832 9.6677C99.6541 8.9311 100.416 7.30869 101.672 6.4344C101.871 6.29515 101.796 5.94525 101.558 5.88434C98.8234 5.19306 96.7676 6.64308 95.9721 9.36615C95.1362 9.21052 94.3147 8.97367 93.5218 8.56326C93.4983 8.37514 93.3533 8.2579 93.2018 8.23733C92.153 6.5751 91.0337 4.97587 89.836 3.46703C89.5551 3.11464 89.0288 3.45432 89.29 3.85243C90.4773 5.66191 91.6319 7.46444 92.7342 9.29252C92.4691 10.4726 91.9676 11.5013 91.3576 12.4624C88.9204 11.2777 86.1423 13.4002 85.4996 15.8836C85.4174 16.2047 85.7818 16.363 85.996 16.2519C87.3008 15.574 88.7192 15.0846 90.0005 14.3527C88.8838 15.7904 87.7031 17.1968 86.9494 18.8971C85.7818 19.4638 84.8714 20.1658 84.3228 21.459C83.7547 22.7994 83.7285 24.429 83.6463 25.8989C83.628 26.2119 83.9349 26.3968 84.1491 26.181C85.6877 24.6214 88.65 21.992 87.3347 19.2944C87.37 19.24 87.3818 19.1733 87.3726 19.105C88.2556 17.4628 89.4938 16.0607 90.634 14.6025C90.4276 16.3198 91.1708 18.3258 92.0877 19.6699C92.2301 19.8786 92.5161 19.8252 92.5671 19.5824C93.0347 17.3362 93.3311 14.924 91.8121 12.9833C92.396 12.093 92.8949 11.1506 93.2149 10.0941C94.6412 12.5019 95.976 14.9646 97.1659 17.5693C97.3775 18.0317 97.58 18.4973 97.7824 18.9644C97.1163 20.3166 96.2621 21.5181 95.3086 22.6401C92.7316 21.1614 88.2347 21.4175 87.7788 25.029C87.7475 25.2767 87.9708 25.5313 88.2059 25.4419C89.9091 24.7996 91.769 24.9686 93.4931 24.5926C92.4182 25.6707 91.291 26.7046 90.203 27.7668C86.2689 26.2068 82.2448 27.4625 80.0453 31.1848C79.8768 31.4679 80.2151 31.7604 80.4619 31.6991C83.001 31.0684 85.6316 31.0223 88.0205 30.051C86.4766 31.8261 85.1836 33.7918 84.4952 36.2314C84.4678 36.2405 84.443 36.2478 84.4169 36.2669C81.755 38.3331 81.3762 42.37 82.0293 45.7419C82.0763 45.9896 82.3924 46.2111 82.5622 45.9557C84.059 43.694 87.0853 39.4965 84.8818 36.5531C85.851 34.0457 87.3452 32.0289 89.0262 30.1865C87.9551 33.1465 88.5259 36.71 89.9222 39.6596C90.0515 39.9346 90.3401 39.9712 90.4903 39.7195C92.5527 36.2568 92.3137 32.2129 90.7711 28.3731C92.0903 27.0584 93.4487 25.7804 94.7052 24.4106C94.1501 27.1906 95.4471 30.5284 97.2077 32.6081C97.3605 32.7864 97.6139 32.6525 97.6531 32.4587C98.0815 30.3877 98.4995 28.4557 97.8634 26.3298C97.5055 25.1395 96.8707 23.7669 95.8206 23.1269C96.6774 22.0819 97.4611 20.9674 98.1116 19.7306C99.85 23.8491 101.263 28.1104 102.453 32.4198C101.526 35.4972 100.234 38.3473 98.7868 41.1034C97.2365 39.919 96.0714 39.5284 94.1788 40.0376C91.9649 40.6335 90.1873 42.512 89.0327 44.5207C88.8629 44.8181 89.2051 45.0847 89.452 45.039C91.3589 44.6821 93.3168 44.6164 95.1702 44.0322C96.1249 43.7336 97.0275 43.2367 97.9156 42.7288C96.4985 45.301 94.9795 47.813 93.5323 50.3736C90.0907 48.8035 85.0242 51.5459 84.2941 55.3236C84.2497 55.558 84.4325 55.7896 84.6559 55.774C87.3321 55.5866 90.105 54.641 92.1831 52.8368C91.496 54.1305 90.8378 55.4428 90.2369 56.7927C88.9243 57.9422 87.5437 59.0498 86.8149 60.7499Z" fill="#4F4F51"/>
<path d="M98.3407 72.7404L29 72.7403V3.19434L98.3407 3.19473V72.7404Z" fill="white"/>
<path d="M29.8542 71.8836L97.4878 71.8838L97.4865 4.05133L29.8542 4.05107V71.8836ZM98.3407 72.7404L29 72.7403V3.19434L98.3407 3.19473V72.7404Z" fill="#4F4F51"/>
<g clip-path="url(#clip0)">
<path d="M78.7603 41.5385C78.5464 41.3217 78.237 41.2321 77.9453 41.2966C76.8403 41.5456 71.2571 42.8571 69.7826 44.3514C68.9535 45.1899 68.4973 46.3061 68.4973 47.494C68.4973 48.3772 68.7519 49.2193 69.2204 49.9378L64.8765 54.34L64.8801 42.9718C66.6074 42.7568 68.2286 41.9596 69.4132 40.6445C70.7992 39.1054 71.487 37.0342 71.3013 34.9577L71.0114 31.7005C71.0874 31.4676 71.0767 31.2077 70.946 30.9766L70.1752 22.3802C70.1469 22.0506 69.9401 21.7657 69.6412 21.6367C69.3425 21.5077 68.9995 21.5561 68.7431 21.7603L67.9246 22.4232L64.6838 18.3185C64.348 17.8938 63.639 17.8938 63.3031 18.3185L60.218 22.2279C59.8485 22.0415 59.4808 21.8552 59.1095 21.6742C59.1059 21.6725 59.1024 21.6706 59.0971 21.6689C59.0883 21.6652 59.0795 21.6599 59.0706 21.6563C59.0335 21.6385 58.9946 21.6402 58.9557 21.6277C58.8938 21.6062 58.8372 21.5757 58.7683 21.5686C58.7594 21.5686 58.7524 21.5722 58.7453 21.5703C58.6993 21.5667 58.6569 21.5811 58.611 21.5847C58.4183 21.6026 58.2415 21.6671 58.1054 21.7907C58.0983 21.7979 58.093 21.8086 58.0859 21.8158C58.0117 21.8875 57.9463 21.9699 57.9003 22.0648C57.8985 22.0702 57.8932 22.072 57.8914 22.0756C57.8719 22.1168 57.8738 22.1598 57.8596 22.2028C57.8419 22.262 57.8136 22.3175 57.8083 22.382L56.6803 34.9595C56.4947 37.0342 57.1824 39.1072 58.5685 40.6462C59.7548 41.9613 61.3778 42.7604 63.1139 42.9754L63.1103 56.5006C63.1103 56.506 63.1103 56.5114 63.1103 56.5167V57.9304L58.7647 53.5265C59.235 52.8062 59.4896 51.9641 59.4896 51.0809C59.4896 49.893 59.0335 48.7767 58.2043 47.9382C56.7299 46.444 51.1466 45.1325 50.0417 44.8835C49.75 44.8172 49.4406 44.9104 49.2266 45.1254C49.0127 45.3404 48.9226 45.6521 48.988 45.9513C49.2337 47.0711 50.5278 52.7292 52.0023 54.2235C52.8297 55.0637 53.9312 55.526 55.1033 55.526C55.9732 55.526 56.8041 55.268 57.513 54.7914L63.3685 60.7254C63.3986 60.754 63.4357 60.7666 63.4675 60.7916C63.5276 60.8382 63.5859 60.8884 63.6567 60.917C63.7645 60.9618 63.8795 60.9869 63.9944 60.9869C64.1094 60.9869 64.2242 60.9636 64.3321 60.917C64.4293 60.8758 64.516 60.8149 64.592 60.7414C64.5991 60.7343 64.6097 60.7324 64.6185 60.7235C64.6998 60.6411 64.7653 60.5408 64.8095 60.4315C64.8343 60.3688 64.8377 60.3043 64.8483 60.238C64.8572 60.1879 64.8784 60.143 64.8784 60.0893L64.8802 56.875L70.474 51.2062C71.183 51.6828 72.0157 51.9408 72.8855 51.9408C74.0577 51.9408 75.1591 51.4768 75.9866 50.6383C77.461 49.1422 78.7552 43.4859 79.0009 42.3661C79.0626 42.067 78.9743 41.7552 78.7603 41.5385ZM56.9526 52.9532C55.9625 53.9566 54.2406 53.9566 53.2505 52.9532C52.5716 52.2652 51.6576 49.3913 51.0441 46.9655C53.4379 47.5853 56.272 48.5135 56.9526 49.2015C57.4476 49.7031 57.7199 50.3678 57.7199 51.0773C57.7199 51.7868 57.4476 52.4515 56.9526 52.9532ZM68.5645 24.2005L68.9322 28.2909C68.1579 27.4506 67.2987 26.6855 66.3758 25.9742L68.5645 24.2005ZM63.9926 20.3126L66.542 23.5447L64.873 24.8975C63.8918 24.2435 62.8699 23.6361 61.8198 23.0664L63.9926 20.3126ZM63.9873 41.2733C62.4032 41.2733 60.9429 40.6193 59.8751 39.4351C58.8072 38.2508 58.2981 36.7171 58.4413 35.119L59.4526 23.8422C61.0915 24.6682 62.695 25.564 64.1713 26.5745C64.1783 26.5835 64.1783 26.5942 64.1854 26.6031C64.3057 26.7554 64.4701 26.8414 64.6433 26.8897C66.4926 28.2138 68.0873 29.7529 69.2276 31.5929L69.5441 35.1189C69.6873 36.717 69.1781 38.2489 68.1103 39.435C67.0423 40.6211 65.582 41.2733 63.9873 41.2733ZM74.7347 49.3698C73.7446 50.3732 72.0227 50.3732 71.0326 49.3698C70.5376 48.8682 70.2653 48.2035 70.2653 47.494C70.2653 46.7845 70.5375 46.1197 71.0326 45.6181C71.7115 44.9301 74.5473 44.0038 76.9411 43.3821C76.3294 45.808 75.4136 48.6801 74.7347 49.3698Z" fill="#FF784A"/>
</g>
<defs>
<clipPath id="clip0">
<rect width="30" height="43" fill="white" transform="translate(49 18)"/>
</clipPath>
</defs>
</svg>
