<svg width="21" height="21" viewBox="0 0 21 21" fill="none" xmlns="http://www.w3.org/2000/svg">
<g clip-path="url(#clip0)">
<path d="M14.279 0H5.846C2.6225 0 0 2.6225 0 5.846V14.279C0 17.5025 2.6225 20.125 5.846 20.125H14.279C17.5025 20.125 20.125 17.5025 20.125 14.279V5.846C20.125 2.6225 17.5025 0 14.279 0ZM18.5527 14.279C18.5527 16.6356 16.6356 18.5527 14.279 18.5527H5.846C3.48945 18.5527 1.57227 16.6356 1.57227 14.279V5.846C1.57227 3.48945 3.48945 1.57227 5.846 1.57227H14.279C16.6356 1.57227 18.5527 3.48945 18.5527 5.846V14.279Z" fill="#FF784A"/>
<path d="M10.061 4.63818C7.07004 4.63818 4.63672 7.0715 4.63672 10.0625C4.63672 13.0535 7.07004 15.4868 10.061 15.4868C13.052 15.4868 15.4854 13.0535 15.4854 10.0625C15.4854 7.0715 13.052 4.63818 10.061 4.63818ZM10.061 13.9146C7.93702 13.9146 6.20898 12.1865 6.20898 10.0625C6.20898 7.93849 7.93702 6.21045 10.061 6.21045C12.185 6.21045 13.9131 7.93849 13.9131 10.0625C13.9131 12.1865 12.185 13.9146 10.061 13.9146Z" fill="#FF784A"/>
<path d="M15.5674 5.3457C16.0016 5.3457 16.3535 4.99374 16.3535 4.55957C16.3535 4.1254 16.0016 3.77344 15.5674 3.77344C15.1332 3.77344 14.7812 4.1254 14.7812 4.55957C14.7812 4.99374 15.1332 5.3457 15.5674 5.3457Z" fill="#FF784A"/>
</g>
<defs>
<clipPath id="clip0">
<rect width="20.125" height="20.125" fill="white"/>
</clipPath>
</defs>
</svg>
