<svg width="24" height="20" viewBox="0 0 24 20" fill="none" xmlns="http://www.w3.org/2000/svg">
<path d="M17.067 10.8588H13.8032C12.91 10.8588 12.1836 11.5553 12.1836 12.4117V14.8117C12.1836 15.6682 12.91 16.3647 13.8032 16.3647H17.067C17.9603 16.3647 18.6867 15.6682 18.6867 14.8117V12.4117C18.6867 11.5553 17.9603 10.8588 17.067 10.8588ZM17.5088 14.8117C17.5088 15.047 17.3075 15.2353 17.067 15.2353H13.8032C13.5578 15.2353 13.3615 15.0423 13.3615 14.8117V12.4117C13.3615 12.1764 13.5627 11.9882 13.8032 11.9882H17.067C17.3124 11.9882 17.5088 12.1811 17.5088 12.4117V14.8117Z" fill="#FF784A"/>
<path d="M24.0196 6.49648C24.0196 6.39765 23.9951 6.30353 23.9411 6.21883L20.3681 0.195293C20.265 0.0211751 20.0687 -0.0917664 19.8577 -0.0917664H4.15706C3.94601 -0.0917664 3.74969 0.0164692 3.64663 0.195293L0.0785276 6.21883C0.0294479 6.30353 0 6.39765 0 6.49648C0 7.84707 0.84908 9.00471 2.06135 9.51766V19.4518C2.06135 19.7624 2.32638 20.0165 2.65031 20.0165H5.90429C5.9092 20.0165 5.91411 20.0165 5.91902 20.0165H10.4834C10.4883 20.0165 10.4933 20.0165 10.4982 20.0165H21.3644C21.6883 20.0165 21.9534 19.7624 21.9534 19.4518V9.58825C21.9534 9.56472 21.9534 9.54589 21.9485 9.52707C23.1656 9.01413 24.0196 7.85177 24.0196 6.49648ZM4.50061 1.04235H19.5141L22.3067 5.75295H1.71288L4.50061 1.04235ZM17.0945 6.87765C16.908 7.89412 15.9804 8.66589 14.8663 8.66589C13.7521 8.66589 12.8245 7.89412 12.638 6.87765H17.0945ZM11.3865 6.87765C11.2 7.89412 10.2724 8.66589 9.15828 8.66589C8.04417 8.66589 7.11657 7.89412 6.92515 6.87765H11.3865ZM1.21718 6.87765H5.67853C5.49202 7.89412 4.55951 8.66589 3.4454 8.66589C2.33129 8.6706 1.40368 7.89412 1.21718 6.87765ZM9.89448 18.8871H6.50798V12.793C6.50798 12.3506 6.88098 11.9882 7.34724 11.9882H9.06012C9.52147 11.9882 9.89939 12.3459 9.89939 12.793V18.8871H9.89448ZM20.7755 18.8871H11.0724V12.793C11.0724 11.7294 10.1693 10.8588 9.05521 10.8588H7.34233C6.23313 10.8588 5.32515 11.7247 5.32515 12.793V18.8918H3.23926V9.7953C3.30798 9.80001 3.37669 9.80001 3.4454 9.80001C4.63313 9.80001 5.68344 9.22119 6.30184 8.34118C6.92025 9.22119 7.97055 9.80001 9.15828 9.80001C10.346 9.80001 11.3914 9.22119 12.0147 8.34118C12.6331 9.22119 13.6834 9.80001 14.8663 9.80001C16.054 9.80001 17.0994 9.22119 17.7178 8.34118C18.3362 9.22119 19.3865 9.80001 20.5742 9.80001C20.6429 9.80001 20.7067 9.7953 20.7755 9.7953V18.8871ZM20.5742 8.6706C19.4601 8.6706 18.5325 7.89883 18.346 6.88236H22.8074C22.616 7.89413 21.6883 8.6706 20.5742 8.6706Z" fill="#FF784A"/>
</svg>
