<svg width="23" height="16" viewBox="0 0 23 16" fill="none" xmlns="http://www.w3.org/2000/svg">
<path d="M22.9666 4.42179C23.0534 4.17455 22.9673 3.90825 22.7513 3.75628C20.6235 2.25934 18.4573 1.19581 16.313 0.595231C13.5825 -0.169643 10.8476 -0.197526 8.18368 0.5125C4.02759 1.62265 1.48635 5.67008 2.51898 9.53521C2.61878 9.90772 2.74894 10.2673 2.90677 10.6122L0.0931404 15.0934C-0.0920119 15.3883 0.00747472 15.7599 0.31534 15.9234C0.623206 16.0868 1.0229 15.9802 1.20806 15.6853L3.62733 11.8322C4.25194 12.6752 5.07462 13.3819 6.05727 13.9036C7.83765 14.8488 9.92636 15.0733 11.9383 14.5359C15.0827 13.6977 16.303 10.8905 17.0823 9.36529C18.2719 7.03668 19.2992 5.02562 22.3642 4.85893C22.6387 4.84395 22.8798 4.66909 22.9666 4.42179ZM8.49815 1.68611C11.6421 0.848172 14.86 1.14121 18.1054 2.55424C16.3865 2.46885 14.5339 2.69157 12.7002 3.23015C9.10503 4.28613 5.99666 6.41761 3.80943 9.29794C2.87992 6.06031 4.9928 2.62244 8.49815 1.68611ZM15.9127 8.86943C14.894 10.8635 13.9317 12.747 11.6237 13.3623C9.94884 13.8096 8.21011 13.6226 6.72772 12.8356C5.73187 12.3069 4.93323 11.5502 4.38945 10.6384C6.41629 7.65308 9.47079 5.44515 13.0485 4.39425C14.6923 3.91143 16.3972 3.69715 17.979 3.7746C18.7502 3.81235 19.4853 3.91888 20.1655 4.08928C19.3899 4.39416 18.707 4.8513 18.1046 5.46684C17.1556 6.43651 16.5237 7.67334 15.9127 8.86943Z" fill="#FF784A"/>
</svg>
