<svg width="24" height="20" viewBox="0 0 24 20" fill="none" xmlns="http://www.w3.org/2000/svg">
<path d="M21.9885 0.731905C20.835 0.259952 19.3352 0 17.7656 0C16.196 0 14.6963 0.259952 13.5428 0.731905C12.8611 1.01081 12.3407 1.35167 12 1.73414C11.6593 1.35167 11.1389 1.01086 10.4572 0.731952C9.3037 0.259952 7.80398 0 6.23438 0C4.66477 0 3.16505 0.259952 2.01155 0.731905C0.714375 1.26267 0 2.01743 0 2.85714V14.2857C0 15.1254 0.714375 15.8802 2.01155 16.411C3.08437 16.8499 4.45678 17.1051 5.90625 17.1388V17.1429C5.90625 18.7717 8.526 20 12 20C15.474 20 18.0938 18.7717 18.0938 17.1429V17.1388C19.5432 17.1051 20.9156 16.8499 21.9885 16.411C23.2856 15.8802 24 15.1254 24 14.2857V2.85714C24 2.01743 23.2856 1.26267 21.9885 0.731905ZM23.0625 11.4286C23.0625 11.8351 22.5167 12.3109 21.6382 12.6704C20.6873 13.0594 19.4107 13.2948 18.0938 13.3286V11.4286C18.0938 11.4272 18.0937 11.4258 18.0937 11.4245C19.5432 11.3909 20.9156 11.1357 21.9885 10.6967C22.4096 10.5244 22.7688 10.3284 23.0625 10.1136L23.0625 11.4286ZM11.5312 5.71429C11.5312 6.12081 10.9855 6.59662 10.107 6.9561C9.07725 7.37743 7.66575 7.61905 6.23438 7.61905C4.803 7.61905 3.3915 7.37743 2.3618 6.9561C1.48327 6.59662 0.9375 6.12081 0.9375 5.71429V4.39933C1.23127 4.6141 1.59047 4.8101 2.01155 4.98238C3.16505 5.45433 4.66477 5.71429 6.23438 5.71429C7.80398 5.71429 9.3037 5.45433 10.4572 4.98238C10.8783 4.8101 11.2375 4.6141 11.5312 4.39933V5.71429ZM2.01155 7.83952C3.16505 8.31148 4.66477 8.57143 6.23438 8.57143C7.80398 8.57143 9.3037 8.31148 10.4572 7.83952C10.8783 7.66724 11.2375 7.47124 11.5312 7.25648V8.57986C10.3186 8.62157 9.15563 8.82376 8.21498 9.16029C7.27153 9.49786 6.59264 9.948 6.22345 10.476C4.79583 10.4748 3.38888 10.2335 2.3618 9.81324C1.48327 9.45376 0.9375 8.97795 0.9375 8.57143V7.25648C1.23127 7.47124 1.59047 7.66724 2.01155 7.83952ZM0.9375 10.1136C1.23127 10.3284 1.59047 10.5244 2.01155 10.6967C3.08442 11.1356 4.45687 11.3909 5.90639 11.4245C5.90639 11.4259 5.9063 11.4272 5.9063 11.4286V13.3286C4.58925 13.2948 3.3127 13.0594 2.36184 12.6704C1.48327 12.3109 0.9375 11.8351 0.9375 11.4286V10.1136ZM6.89334 11.1946C7.24073 10.3733 9.24581 9.52381 12 9.52381C14.7542 9.52381 16.7593 10.3733 17.1063 11.1937C17.1399 11.2737 17.1562 11.3505 17.1562 11.4286C17.1562 11.8472 16.6482 12.3123 15.7971 12.6725C14.7904 13.0987 13.4419 13.3333 12 13.3333C10.5581 13.3333 9.20958 13.0987 8.20289 12.6725C7.35183 12.3123 6.84375 11.8472 6.84375 11.4286C6.84375 11.3505 6.86011 11.2737 6.89334 11.1946ZM23.0625 8.57143C23.0625 8.97795 22.5167 9.45376 21.6382 9.81324C20.6112 10.2335 19.2043 10.4748 17.7767 10.476C17.4078 9.94829 16.7288 9.49795 15.785 9.16029C14.8444 8.82371 13.6814 8.62157 12.4688 8.57986V7.25648C12.7625 7.47124 13.1217 7.66724 13.5428 7.83952C14.6963 8.31148 16.196 8.57143 17.7656 8.57143C19.3352 8.57143 20.835 8.31148 21.9885 7.83952C22.4095 7.66724 22.7687 7.47124 23.0625 7.25648V8.57143ZM23.0625 5.71429C23.0625 6.12081 22.5167 6.59662 21.6382 6.9561C20.6085 7.37743 19.197 7.61905 17.7656 7.61905C16.3342 7.61905 14.9228 7.37743 13.893 6.9561C13.0145 6.59662 12.4688 6.12081 12.4688 5.71429V4.39933C12.7625 4.6141 13.1217 4.8101 13.5428 4.98238C14.6963 5.45433 16.196 5.71429 17.7656 5.71429C19.3352 5.71429 20.835 5.45433 21.9885 4.98238C22.4095 4.8101 22.7687 4.6141 23.0625 4.39933V5.71429ZM13.893 1.61533C14.9228 1.194 16.3342 0.952381 17.7656 0.952381C19.197 0.952381 20.6085 1.194 21.6382 1.61533C22.5167 1.97481 23.0625 2.45062 23.0625 2.85714C23.0625 3.26367 22.5167 3.73948 21.6382 4.09895C20.6085 4.52029 19.197 4.7619 17.7656 4.7619C16.3342 4.7619 14.9228 4.52029 13.893 4.09895C13.0145 3.73948 12.4688 3.26367 12.4688 2.85714C12.4688 2.45062 13.0145 1.97481 13.893 1.61533ZM2.3618 1.61533C3.3915 1.194 4.803 0.952381 6.23438 0.952381C7.66575 0.952381 9.07725 1.194 10.107 1.61533C10.9855 1.97481 11.5312 2.45062 11.5312 2.85714C11.5312 3.26367 10.9855 3.73948 10.107 4.09895C9.07725 4.52029 7.66575 4.7619 6.23438 4.7619C4.803 4.7619 3.3915 4.52029 2.3618 4.09895C1.48327 3.73948 0.9375 3.26367 0.9375 2.85714C0.9375 2.45062 1.48327 1.97481 2.3618 1.61533ZM2.3618 15.5275C1.48327 15.168 0.9375 14.6922 0.9375 14.2857V12.9708C1.23127 13.1855 1.59047 13.3815 2.01155 13.5538C3.08437 13.9928 4.45678 14.248 5.90625 14.2816V16.1858C4.5892 16.152 3.31266 15.9166 2.3618 15.5275ZM15.7971 18.3868C14.7904 18.813 13.4419 19.0476 12 19.0476C10.5581 19.0476 9.20958 18.813 8.20289 18.3868C7.35183 18.0266 6.84375 17.5615 6.84375 17.1429V15.8557C6.94992 15.9337 7.06725 16.0113 7.19738 16.0878C7.9253 16.5157 8.91572 16.8322 10.0616 17.003C10.0847 17.0065 10.1076 17.0081 10.1303 17.0081C10.359 17.0081 10.5592 16.8378 10.5935 16.601C10.6311 16.3409 10.4539 16.099 10.1978 16.0608C8.01928 15.7359 6.84375 14.9038 6.84375 14.2857V12.9943C7.90472 13.783 9.77752 14.2857 12 14.2857C14.2225 14.2857 16.0953 13.783 17.1562 12.9943V14.2857C17.1562 14.9038 15.9807 15.7359 13.8022 16.0608C13.5461 16.099 13.3689 16.3409 13.4065 16.601C13.4408 16.8379 13.641 17.0081 13.8697 17.0081C13.8923 17.0081 13.9153 17.0065 13.9384 17.003C15.0842 16.8322 16.0747 16.5157 16.8026 16.0878C16.9327 16.0113 17.0501 15.9337 17.1562 15.8557V17.1429C17.1562 17.5615 16.6482 18.0266 15.7971 18.3868ZM21.6382 15.5275C20.6873 15.9166 19.4107 16.152 18.0938 16.1858V14.2816C19.5432 14.248 20.9156 13.9927 21.9885 13.5538C22.4095 13.3815 22.7687 13.1855 23.0625 12.9707V14.2857C23.0625 14.6922 22.5167 15.168 21.6382 15.5275Z" fill="#FF784A"/>
</svg>
