<svg width="219" height="41" viewBox="0 0 219 41" fill="none" xmlns="http://www.w3.org/2000/svg">
<path fill-rule="evenodd" clip-rule="evenodd" d="M14.5947 14.7504C15.3025 15.0856 20.3453 10.6009 14.4654 3.75096C8.58572 -3.09903 2.7706 1.90668 2.18913 3.6192C1.60757 5.33172 0.767585 9.6129 4.32136 12.511C7.87504 15.4091 10.0719 16.3971 11.2349 16.4629C12.3979 16.5287 13.884 16.9147 11.8164 15.4045C9.74874 13.8942 6.5181 11.062 6.84123 9.15187C7.16426 7.24175 8.06886 6.18794 9.61953 7.04416C11.1703 7.90046 12.1394 8.42732 12.204 9.6129C12.2687 10.7985 12.0291 10.9652 12.3198 11.2945C12.6106 11.6238 13.3099 10.9487 13.9486 11.5888C14.2137 11.8546 13.8099 12.3416 13.9391 12.605C14.1506 13.0361 14.7545 13.0981 14.8086 13.3423C14.884 13.6826 14.1675 14.5481 14.5947 14.7504Z" fill="#FF784A"/>
<path fill-rule="evenodd" clip-rule="evenodd" d="M24.3404 19.802C24.3404 19.802 24.7235 16.9046 22.4244 16.1293C20.1253 15.354 20.0402 15.6805 19.3589 15.8845C18.6777 16.0885 18.8055 16.0069 18.0391 15.8028C17.2727 15.5988 16.0172 16.2974 15.8895 16.9504C15.7618 17.6033 15.9508 19.4157 16.5469 19.6605C17.1429 19.9054 17.4689 20.0429 17.3807 19.4327C17.2811 18.7444 17.443 18.4145 17.8688 18.8226C18.2945 19.2306 18.6352 19.3122 19.2738 18.5369C19.9124 17.7616 21.2323 17.9248 21.9561 18.5369C22.6799 19.149 24.383 21.0669 24.3404 19.802Z" fill="#FF784A"/>
<path fill-rule="evenodd" clip-rule="evenodd" d="M15.9741 21.6942C15.9741 21.6942 17.8901 27.2847 14.0582 30.0596C10.2263 32.8345 7.33114 33.4058 4.13798 30.4677C0.94472 27.5296 0.689285 23.6122 1.37048 21.9799C2.05167 20.3476 2.98838 17.6951 6.2242 17.2055C9.46001 16.7158 10.4818 17.2463 11.0353 17.6951C11.5888 18.1441 12.4403 19.001 10.7798 19.1642C9.11937 19.3275 6.30931 19.0418 5.88356 21.6535C5.4578 24.2651 6.43708 25.326 7.50147 25.6525C8.56586 25.979 10.4818 25.979 11.2907 24.1018C12.0997 22.2248 12.6532 22.3471 13.3344 22.0206C14.0157 21.6942 15.5909 20.5108 15.9741 21.6942Z" fill="#FF784A"/>
<path fill-rule="evenodd" clip-rule="evenodd" d="M26.451 20.2805C26.451 20.2805 30.3972 12.9849 27.3866 11.146C24.7132 9.51321 22.7675 11.8185 21.715 13.1634C20.6626 14.5084 18.9669 16.0215 19.0839 13.5557C19.2008 11.09 19.2008 7.95175 21.5396 6.38265C23.8783 4.81354 29.1042 5.13046 31.1964 7.1358C33.3013 9.15324 35.6308 13.0514 32.181 18.3191C28.7313 23.5868 29.0821 21.1211 29.0821 21.1211C29.0821 21.1211 29.3161 20.4486 28.439 20.5046C27.562 20.5607 25.8079 21.065 26.451 20.2805Z" fill="#FF784A"/>
<path fill-rule="evenodd" clip-rule="evenodd" d="M30.9254 25.5709C30.9254 25.5709 33.0542 32.3934 29.7945 36.5377C26.5348 40.6822 24.4725 41.1923 21.9445 40.4909C19.4165 39.7895 17.2082 38.5144 17.2813 33.9873C17.3542 29.4603 18.0632 27.7388 19.0725 26.4636C20.0818 25.1883 20.6577 23.3393 19.0725 24.1682C17.4873 24.9971 17.8199 24.7154 17.8199 24.7154C17.8199 24.7154 16.2395 26.001 17.7927 22.5798C19.3458 19.1586 23.0245 21.1013 23.2969 21.6969C23.5694 22.2925 25.4768 23.755 23.2424 25.6093C21.008 27.4636 20.0845 31.3027 20.5463 33.2875C21.008 35.2723 22.2887 36.5259 23.6784 34.6194C25.0681 32.713 25.4414 30.9462 25.6799 29.673C25.9183 28.3998 26.4973 26.1473 25.9523 26.2452C25.4074 26.3431 24.6581 26.082 25.4414 25.2005C26.2248 24.3191 26.1343 24.0841 26.2641 23.6923C26.3937 23.3006 27.3229 22.9611 28.1064 23.0917C28.8898 23.2222 30.4147 23.754 30.9254 25.5709Z" fill="#FF784A"/>
<path d="M46.8164 12.8203H59.6602V15.7031H50.2852V19.6875H54.9258C56.207 19.6875 57.2695 19.8438 58.1133 20.1562C58.957 20.4688 59.6758 21.0469 60.2695 21.8906C60.8711 22.7344 61.1719 23.7227 61.1719 24.8555C61.1719 26.0195 60.8711 27.0156 60.2695 27.8438C59.668 28.6719 58.9805 29.2383 58.207 29.543C57.4414 29.8477 56.3477 30 54.9258 30H46.8164V12.8203ZM50.2852 27.1172H53.6602C54.7383 27.1172 55.4961 27.0664 55.9336 26.9648C56.3711 26.8555 56.75 26.6133 57.0703 26.2383C57.3984 25.8633 57.5625 25.4023 57.5625 24.8555C57.5625 24.0586 57.2773 23.4805 56.707 23.1211C56.1445 22.7539 55.1797 22.5703 53.8125 22.5703H50.2852V27.1172ZM78.5742 30H74.8008L73.3008 26.0977H66.4336L65.0156 30H61.3359L68.0273 12.8203H71.6953L78.5742 30ZM72.1875 23.2031L69.8203 16.8281L67.5 23.2031H72.1875ZM82.875 17.5078L79.5 16.7227C80.2266 13.9258 82.293 12.5273 85.6992 12.5273C87.7148 12.5273 89.2344 12.9727 90.2578 13.8633C91.2891 14.7461 91.8047 15.7852 91.8047 16.9805C91.8047 17.8008 91.5703 18.543 91.1016 19.207C90.6328 19.8633 89.9297 20.4414 88.9922 20.9414C90.1328 21.332 90.9883 21.8867 91.5586 22.6055C92.1289 23.3164 92.4141 24.1953 92.4141 25.2422C92.4141 26.75 91.8594 27.9688 90.75 28.8984C89.6484 29.8281 87.9961 30.293 85.793 30.293C83.9961 30.293 82.5781 29.9961 81.5391 29.4023C80.5 28.8008 79.7188 27.6797 79.1953 26.0391L82.3711 24.9961C82.6992 26.0273 83.1328 26.6953 83.6719 27C84.2188 27.3047 84.8906 27.457 85.6875 27.457C86.7812 27.457 87.5781 27.2227 88.0781 26.7539C88.5781 26.2773 88.8281 25.7344 88.8281 25.125C88.8281 24.4219 88.543 23.8555 87.9727 23.4258C87.4102 22.9961 86.5586 22.7812 85.418 22.7812H84.6328V20.1914H85.0312C86.0938 20.1914 86.9062 19.9531 87.4688 19.4766C88.0312 19 88.3125 18.3672 88.3125 17.5781C88.3125 16.9531 88.082 16.4258 87.6211 15.9961C87.168 15.5664 86.5156 15.3516 85.6641 15.3516C84.2109 15.3516 83.2812 16.0703 82.875 17.5078ZM110.965 30H107.191L105.691 26.0977H98.8242L97.4062 30H93.7266L100.418 12.8203H104.086L110.965 30ZM104.578 23.2031L102.211 16.8281L99.8906 23.2031H104.578ZM119.555 12.8203H123.023V27.1172H129.75V12.8203H133.219V27.1172H134.648V33.75H131.766V30H119.555V12.8203ZM137.039 12.8203H143.906C145.266 12.8203 146.277 12.8789 146.941 12.9961C147.613 13.1055 148.211 13.3398 148.734 13.6992C149.266 14.0586 149.707 14.5391 150.059 15.1406C150.41 15.7344 150.586 16.4023 150.586 17.1445C150.586 17.9492 150.367 18.6875 149.93 19.3594C149.5 20.0312 148.914 20.5352 148.172 20.8711C149.219 21.1758 150.023 21.6953 150.586 22.4297C151.148 23.1641 151.43 24.0273 151.43 25.0195C151.43 25.8008 151.246 26.5625 150.879 27.3047C150.52 28.0391 150.023 28.6289 149.391 29.0742C148.766 29.5117 147.992 29.7812 147.07 29.8828C146.492 29.9453 145.098 29.9844 142.887 30H137.039V12.8203ZM140.508 15.6797V19.6523H142.781C144.133 19.6523 144.973 19.6328 145.301 19.5938C145.895 19.5234 146.359 19.3203 146.695 18.9844C147.039 18.6406 147.211 18.1914 147.211 17.6367C147.211 17.1055 147.062 16.6758 146.766 16.3477C146.477 16.0117 146.043 15.8086 145.465 15.7383C145.121 15.6992 144.133 15.6797 142.5 15.6797H140.508ZM140.508 22.5117V27.1055H143.719C144.969 27.1055 145.762 27.0703 146.098 27C146.613 26.9062 147.031 26.6797 147.352 26.3203C147.68 25.9531 147.844 25.4648 147.844 24.8555C147.844 24.3398 147.719 23.9023 147.469 23.543C147.219 23.1836 146.855 22.9219 146.379 22.7578C145.91 22.5938 144.887 22.5117 143.309 22.5117H140.508ZM154.371 30V12.8203H167.109V15.7266H157.84V19.5352H166.465V22.4297H157.84V27.1055H167.438V30H154.371ZM174.246 30V15.7266H169.148V12.8203H182.801V15.7266H177.715V30H174.246ZM183.738 21.5156C183.738 19.7656 184 18.2969 184.523 17.1094C184.914 16.2344 185.445 15.4492 186.117 14.7539C186.797 14.0586 187.539 13.543 188.344 13.207C189.414 12.7539 190.648 12.5273 192.047 12.5273C194.578 12.5273 196.602 13.3125 198.117 14.8828C199.641 16.4531 200.402 18.6367 200.402 21.4336C200.402 24.207 199.648 26.3789 198.141 27.9492C196.633 29.5117 194.617 30.293 192.094 30.293C189.539 30.293 187.508 29.5156 186 27.9609C184.492 26.3984 183.738 24.25 183.738 21.5156ZM187.312 21.3984C187.312 23.3438 187.762 24.8203 188.66 25.8281C189.559 26.8281 190.699 27.3281 192.082 27.3281C193.465 27.3281 194.598 26.832 195.48 25.8398C196.371 24.8398 196.816 23.3438 196.816 21.3516C196.816 19.3828 196.383 17.9141 195.516 16.9453C194.656 15.9766 193.512 15.4922 192.082 15.4922C190.652 15.4922 189.5 15.9844 188.625 16.9688C187.75 17.9453 187.312 19.4219 187.312 21.3984ZM203.133 12.8203H210C211.359 12.8203 212.371 12.8789 213.035 12.9961C213.707 13.1055 214.305 13.3398 214.828 13.6992C215.359 14.0586 215.801 14.5391 216.152 15.1406C216.504 15.7344 216.68 16.4023 216.68 17.1445C216.68 17.9492 216.461 18.6875 216.023 19.3594C215.594 20.0312 215.008 20.5352 214.266 20.8711C215.312 21.1758 216.117 21.6953 216.68 22.4297C217.242 23.1641 217.523 24.0273 217.523 25.0195C217.523 25.8008 217.34 26.5625 216.973 27.3047C216.613 28.0391 216.117 28.6289 215.484 29.0742C214.859 29.5117 214.086 29.7812 213.164 29.8828C212.586 29.9453 211.191 29.9844 208.98 30H203.133V12.8203ZM206.602 15.6797V19.6523H208.875C210.227 19.6523 211.066 19.6328 211.395 19.5938C211.988 19.5234 212.453 19.3203 212.789 18.9844C213.133 18.6406 213.305 18.1914 213.305 17.6367C213.305 17.1055 213.156 16.6758 212.859 16.3477C212.57 16.0117 212.137 15.8086 211.559 15.7383C211.215 15.6992 210.227 15.6797 208.594 15.6797H206.602ZM206.602 22.5117V27.1055H209.812C211.062 27.1055 211.855 27.0703 212.191 27C212.707 26.9062 213.125 26.6797 213.445 26.3203C213.773 25.9531 213.938 25.4648 213.938 24.8555C213.938 24.3398 213.812 23.9023 213.562 23.543C213.312 23.1836 212.949 22.9219 212.473 22.7578C212.004 22.5938 210.98 22.5117 209.402 22.5117H206.602Z" fill="#1E1E1E"/>
</svg>
