<svg width="14" height="20" viewBox="0 0 14 20" fill="none" xmlns="http://www.w3.org/2000/svg">
<path d="M7.01514 0C3.15528 0 0.0151367 3.16081 0.0151367 7.04607C0.0151367 11.7756 6.43295 19.5043 6.70622 19.8311C6.78252 19.9224 6.8949 19.9752 7.01341 19.9758C7.014 19.9758 7.01454 19.9758 7.01514 19.9758C7.13301 19.9758 7.24511 19.9239 7.32184 19.8337C7.59511 19.5125 14.0151 11.9115 14.0151 7.04607C14.0151 3.16081 10.875 0 7.01514 0ZM7.01756 18.9296C5.72864 17.316 0.822829 10.9189 0.822829 7.04607C0.822829 3.60916 3.6007 0.813008 7.01514 0.813008C10.4296 0.813008 13.2074 3.60916 13.2074 7.04607C13.2074 11.0293 8.31014 17.3349 7.01756 18.9296Z" fill="#FF784A"/>
<path d="M7.01509 3.91836C5.37407 3.91836 4.03906 5.26215 4.03906 6.91397C4.03906 8.56579 5.37407 9.90958 7.01509 9.90958C8.6561 9.90958 9.99111 8.56579 9.99111 6.91397C9.99111 5.26215 8.6561 3.91836 7.01509 3.91836ZM7.01509 9.09652C5.81949 9.09652 4.84675 8.11744 4.84675 6.91392C4.84675 5.71039 5.81943 4.73131 7.01509 4.73131C8.21074 4.73131 9.18342 5.71039 9.18342 6.91392C9.18342 8.11744 8.21063 9.09652 7.01509 9.09652Z" fill="#FF784A"/>
</svg>