<svg width="17" height="16" viewBox="0 0 17 16" fill="none" xmlns="http://www.w3.org/2000/svg">
<path d="M16.9708 4.87746C16.7227 2.20418 14.7896 0.264663 12.3704 0.264663C10.7586 0.264663 9.2829 1.11362 8.45252 2.47426C7.62965 1.09602 6.2144 0.264343 4.6285 0.264343C2.2096 0.264343 0.276173 2.20386 0.0283649 4.87714C0.00874954 4.99522 -0.0716735 5.61666 0.172865 6.6301C0.525288 8.09186 1.33933 9.42146 2.52638 10.4743L8.4486 15.7347L14.4725 10.4746C15.6595 9.42146 16.4736 8.09218 16.826 6.6301C17.0705 5.61698 16.9901 4.99554 16.9708 4.87746ZM16.1895 6.48354C15.8678 7.81858 15.1221 9.0349 14.0351 9.99874L8.45252 14.8739L2.96577 10C1.87679 9.03426 1.1314 7.81826 0.809384 6.48322C0.577923 5.52418 0.673057 4.98242 0.673384 4.9789L0.678288 4.94658C0.890788 2.6045 2.55188 0.904343 4.6285 0.904343C6.16079 0.904343 7.50967 1.82594 8.14979 3.30914L8.45088 4.0077L8.75198 3.30914C9.38196 1.84866 10.8021 0.904663 12.3707 0.904663C14.447 0.904663 16.1084 2.60482 16.3252 4.9773C16.3258 4.98242 16.4209 5.5245 16.1895 6.48354Z" fill="#FF784A"/>
</svg>
