<svg width="16" height="16" viewBox="0 0 16 16" fill="none" xmlns="http://www.w3.org/2000/svg">
<g clip-path="url(#clip0)">
<path d="M15.5739 2.59729L13.3921 0.413639C12.8424 -0.136551 11.886 -0.137608 11.3342 0.414696L1.56011 10.2852C1.51678 10.3289 1.48552 10.3826 1.46847 10.4416L0.0139569 15.5368C-0.0222815 15.6637 0.013241 15.8006 0.10665 15.894C0.175888 15.9633 0.26858 16.0007 0.363762 16.0007C0.397137 16.0007 0.430886 15.996 0.463545 15.9868L5.55441 14.531C5.61336 14.514 5.66698 14.4827 5.71065 14.4393L15.5739 4.65585C15.8488 4.38078 16 4.01539 16 3.62659C16 3.23778 15.8488 2.87236 15.5739 2.59729ZM9.74958 3.05986L11.0881 4.3984L4.09966 11.3869L3.59812 10.3835C3.53631 10.2602 3.41062 10.1825 3.27282 10.1825H2.69049L9.74958 3.05986ZM0.893225 15.1075L1.36688 13.4495L2.55126 14.6338L0.893225 15.1075ZM5.09099 13.9083L3.35117 14.4053L1.59539 12.6495L2.0924 10.9097H3.048L3.67475 12.1633C3.7099 12.2336 3.76707 12.2908 3.8374 12.3259L5.09095 12.9527V13.9083H5.09099ZM5.81828 13.3103V12.7279C5.81828 12.5901 5.74052 12.4644 5.61728 12.4026L4.61385 11.9011L11.6023 4.91263L12.9408 6.25116L5.81828 13.3103ZM15.0607 4.15019L13.4574 5.73926L10.2615 2.54335L11.8495 0.941057C12.1243 0.666183 12.603 0.666183 12.8779 0.941057L15.0597 3.12286C15.1971 3.26028 15.2728 3.4428 15.2728 3.63705C15.2728 3.8313 15.1971 4.01382 15.0607 4.15019Z" fill="#FF784A"/>
</g>
<defs>
<clipPath id="clip0">
<rect width="16" height="16" fill="white"/>
</clipPath>
</defs>
</svg>
