<svg width="19" height="19" viewBox="0 0 19 19" fill="none" xmlns="http://www.w3.org/2000/svg">
<g clip-path="url(#clip0)">
<path d="M18.5014 14.6585L14.6558 12.0938C14.1677 11.771 13.5136 11.8772 13.1528 12.3379L12.0326 13.7782C11.8886 13.9681 11.6269 14.0231 11.4186 13.9074L11.2055 13.79C10.4992 13.4049 9.62024 12.9256 7.84939 11.1541C6.07853 9.38262 5.59822 8.50304 5.21319 7.79795L5.09635 7.58486C4.97907 7.37664 5.03309 7.11383 5.22299 6.96872L6.66232 5.84885C7.12286 5.48801 7.22923 4.83402 6.90676 4.34585L4.34214 0.500178C4.01166 0.00306009 3.34861 -0.146172 2.83699 0.161382L1.22887 1.12738C0.723588 1.42444 0.352883 1.90552 0.194487 2.46984C-0.384593 4.57979 0.0510427 8.22123 5.41522 13.586C9.68232 17.8528 12.859 19.0002 15.0424 19.0002C15.5449 19.0024 16.0454 18.937 16.5305 18.8059C17.0949 18.6476 17.5761 18.2769 17.873 17.7715L18.8399 16.1643C19.1479 15.6526 18.9988 14.9891 18.5014 14.6585ZM18.2943 15.8394L17.3296 17.4476C17.1164 17.8124 16.7704 18.0806 16.3639 18.1961C14.4161 18.7308 11.013 18.2879 5.86322 13.1381C0.713384 7.98822 0.270475 4.5855 0.805253 2.63736C0.920869 2.23041 1.18943 1.88389 1.55468 1.6704L3.1628 0.705659C3.38479 0.572085 3.67257 0.636831 3.81597 0.852553L5.20911 2.94414L6.3784 4.69789C6.51843 4.90964 6.47242 5.19345 6.27266 5.35014L4.83299 6.47C4.39487 6.80502 4.26975 7.41118 4.5395 7.89227L4.65382 8.09998C5.05847 8.84213 5.56156 9.76538 7.39828 11.6018C9.23499 13.4382 10.158 13.9413 10.8998 14.3459L11.1078 14.4605C11.5888 14.7303 12.195 14.6052 12.53 14.1671L13.6499 12.7274C13.8066 12.5277 14.0903 12.4818 14.3022 12.6216L18.1475 15.1863C18.3634 15.3296 18.4281 15.6175 18.2943 15.8394Z" fill="#FF784A"/>
<path d="M10.7658 3.1684C13.7371 3.1717 16.145 5.57963 16.1484 8.55095C16.1484 8.72582 16.2901 8.86756 16.465 8.86756C16.6399 8.86756 16.7816 8.72582 16.7816 8.55095C16.7779 5.23004 14.0867 2.53882 10.7658 2.53519C10.591 2.53519 10.4492 2.67692 10.4492 2.85179C10.4492 3.02666 10.591 3.1684 10.7658 3.1684Z" fill="#FF784A"/>
<path d="M10.7658 5.06815C12.6884 5.07041 14.2464 6.62841 14.2487 8.55098C14.2487 8.72585 14.3904 8.86759 14.5653 8.86759C14.7401 8.86759 14.8819 8.72585 14.8819 8.55098C14.8792 6.27881 13.038 4.43753 10.7658 4.43494C10.591 4.43494 10.4492 4.57667 10.4492 4.75154C10.4492 4.92641 10.591 5.06815 10.7658 5.06815Z" fill="#FF784A"/>
<path d="M10.7658 6.96778C11.6397 6.96882 12.3479 7.67698 12.3489 8.55089C12.3489 8.72576 12.4907 8.8675 12.6655 8.8675C12.8404 8.8675 12.9822 8.72576 12.9822 8.55089C12.9807 7.32743 11.9893 6.33594 10.7658 6.33456C10.591 6.33456 10.4492 6.4763 10.4492 6.65117C10.4492 6.82604 10.591 6.96778 10.7658 6.96778Z" fill="#FF784A"/>
</g>
<defs>
<clipPath id="clip0">
<rect width="19" height="19" fill="white"/>
</clipPath>
</defs>
</svg>
