<svg width="21" height="18" viewBox="0 0 21 18" fill="none" xmlns="http://www.w3.org/2000/svg">
<path d="M5.824 9.536C6.67733 9.83467 7.33867 10.3253 7.808 11.008C8.27733 11.6907 8.512 12.5227 8.512 13.504C8.512 14.784 8.10667 15.8293 7.296 16.64C6.48533 17.4507 5.48267 17.856 4.288 17.856C3.05067 17.856 2.02667 17.4507 1.216 16.64C0.405333 15.7867 0 14.7413 0 13.504C0 12.9067 0.064 12.3093 0.192 11.712C0.362667 11.072 0.682667 10.1547 1.152 8.96L4.16 0H8.192L5.824 9.536ZM17.92 9.536C18.7733 9.83467 19.4347 10.3253 19.904 11.008C20.3733 11.6907 20.608 12.5227 20.608 13.504C20.608 14.784 20.2027 15.8293 19.392 16.64C18.5813 17.4507 17.5787 17.856 16.384 17.856C15.1467 17.856 14.1227 17.4507 13.312 16.64C12.5013 15.7867 12.096 14.7413 12.096 13.504C12.096 12.9067 12.16 12.3093 12.288 11.712C12.4587 11.072 12.7787 10.1547 13.248 8.96L16.256 0H20.288L17.92 9.536Z" fill="#FF784A"/>
</svg>
