<svg width="20" height="18" viewBox="0 0 20 18" fill="none" xmlns="http://www.w3.org/2000/svg">
<path d="M17.0889 18.0163H18.506L17.5039 16.9902C16.9636 16.4369 16.6262 15.7173 16.5355 14.9366C17.9454 13.9892 18.9764 12.7426 19.5283 11.3131C20.0798 9.88461 20.1491 8.31212 19.7287 6.76556C19.2243 4.90984 18.0412 3.21841 16.3974 2.00281C14.6111 0.681896 12.3874 -0.0163288 9.96657 -0.0163288C6.91702 -0.0163288 4.34658 0.880856 2.53325 2.57817C0.89967 4.1073 -7.62939e-06 6.16988 -7.62939e-06 8.38601C-7.62939e-06 9.46268 0.21409 10.5103 0.636301 11.4998C1.07323 12.5237 1.71302 13.4354 2.53791 14.2094C4.35366 15.9135 6.9225 16.8142 9.96661 16.8142C11.0967 16.8142 12.2759 16.6597 13.3287 16.3762C14.3252 17.423 15.6756 18.0163 17.0889 18.0163ZM9.96657 1.18585C14.8206 1.18585 17.7991 4.15014 18.5977 7.08794C19.3524 9.86417 18.2399 12.4874 15.6219 14.1053L15.3294 14.286L15.3384 14.6357C15.3562 15.3279 15.5174 15.9947 15.8058 16.5974C15.1034 16.354 14.4661 15.9128 13.9669 15.309L13.7188 15.0087L13.3507 15.1215C12.3179 15.4378 11.116 15.612 9.96657 15.612C3.92547 15.612 1.174 11.8663 1.174 8.38601C1.174 6.51158 1.93804 4.76409 3.32539 3.4655C4.91863 1.97416 7.21514 1.18585 9.96657 1.18585Z" fill="#FF784A"/>
</svg>
