<svg width="16" height="15" viewBox="0 0 16 15" fill="none" xmlns="http://www.w3.org/2000/svg">
<path d="M14.6836 6.41707C14.9717 6.13635 15.0734 5.72434 14.9491 5.34134C14.8246 4.95835 14.5002 4.68495 14.1017 4.62692L10.5583 4.11206C10.4074 4.09009 10.277 3.99543 10.2096 3.85859L8.62543 0.647808C8.44755 0.287082 8.08654 0.062911 7.6842 0.062911C7.28216 0.062911 6.92114 0.287082 6.74327 0.647808L5.15883 3.85859C5.09143 3.99543 4.96074 4.09009 4.80982 4.11206L1.26645 4.62722C0.868216 4.68494 0.543827 4.95835 0.419287 5.34134C0.29504 5.72434 0.396723 6.13635 0.684776 6.41707L3.24854 8.91607C3.35784 9.02274 3.40795 9.17629 3.38216 9.32632L2.77704 12.8553C2.70906 13.2518 2.86876 13.6448 3.19432 13.8815C3.51959 14.1186 3.94303 14.1494 4.29965 13.9615L7.46853 12.2953C7.60362 12.2244 7.76478 12.2244 7.89987 12.2953L11.069 13.9615C11.2238 14.043 11.3914 14.0831 11.5581 14.0831C11.7747 14.0831 11.9903 14.0155 12.1744 13.8815C12.4999 13.6448 12.6596 13.2518 12.5917 12.8553L11.9862 9.32661C11.9605 9.17629 12.0106 9.02303 12.1199 8.91636L14.6836 6.41707ZM11.409 9.42566L12.0141 12.9544C12.0446 13.132 11.9757 13.3016 11.8298 13.4077C11.6835 13.5135 11.5016 13.5264 11.3419 13.4432L8.17269 11.7767C8.02002 11.6967 7.85182 11.6562 7.6842 11.6562C7.51658 11.6562 7.34868 11.6967 7.19571 11.777L4.02713 13.4432C3.86684 13.5264 3.68486 13.5135 3.53893 13.4077C3.393 13.3016 3.32443 13.1323 3.35461 12.9544L3.95973 9.42566C4.01804 9.08515 3.90523 8.73761 3.6579 8.49674L1.09385 5.99745C0.964624 5.87144 0.920669 5.69386 0.976639 5.52244C1.03232 5.35072 1.17209 5.23292 1.35055 5.20684L4.89363 4.69198C5.2356 4.64246 5.53127 4.42795 5.68395 4.11792L7.26838 0.907144C7.34809 0.745389 7.50369 0.64898 7.68391 0.64898C7.86442 0.64898 8.01972 0.745389 8.09972 0.907144L9.68416 4.11792C9.83683 4.42795 10.1322 4.64246 10.4742 4.69198L14.0176 5.20684C14.196 5.23292 14.3358 5.35072 14.3915 5.52244C14.4471 5.69386 14.4035 5.87144 14.2743 5.99745L11.7105 8.49644C11.4632 8.73761 11.3504 9.08486 11.409 9.42566Z" fill="#4F4F51"/>
</svg>
