<svg width="16" height="15" viewBox="0 0 16 15" fill="none" xmlns="http://www.w3.org/2000/svg">
<path d="M15.2042 5.60359C15.1044 5.29492 14.8306 5.07568 14.5067 5.04649L10.1069 4.64698L8.36708 0.574808C8.23879 0.27637 7.94663 0.0831881 7.62203 0.0831881C7.29742 0.0831881 7.00526 0.27637 6.87698 0.575506L5.13718 4.64698L0.736672 5.04649C0.413345 5.07638 0.140262 5.29492 0.0398906 5.60359C-0.0604804 5.91226 0.0322145 6.25083 0.276803 6.46425L3.60254 9.38093L2.62186 13.7008C2.5501 14.0185 2.67338 14.3468 2.93692 14.5373C3.07858 14.6397 3.24432 14.6918 3.41145 14.6918C3.55555 14.6918 3.69849 14.6529 3.82677 14.5761L7.62203 12.3079L11.4159 14.5761C11.6935 14.7432 12.0435 14.7279 12.3064 14.5373C12.5701 14.3462 12.6933 14.0178 12.6215 13.7008L11.6408 9.38093L14.9666 6.46483C15.2111 6.25083 15.3045 5.91285 15.2042 5.60359Z" fill="#FF784A"/>
</svg>
