<svg width="20" height="21" viewBox="0 0 20 21" fill="none" xmlns="http://www.w3.org/2000/svg">
<g clip-path="url(#clip0)">
<path d="M14.3122 12.2421H5.64686C2.73781 12.2421 0.371094 14.7323 0.371094 17.7932V21H19.588V17.7932C19.588 14.7323 17.2212 12.2421 14.3122 12.2421ZM18.443 19.7954H1.51598V17.7933C1.51598 15.3967 3.36907 13.4469 5.64679 13.4469H14.3121C16.5898 13.4469 18.4429 15.3967 18.4429 17.7933L18.443 19.7954Z" fill="#FF784A"/>
<path d="M9.98003 11.6718C13.0383 11.6718 15.5265 9.05378 15.5265 5.8359C15.5265 2.61801 13.0384 0 9.98003 0C6.92168 0 4.43359 2.61793 4.43359 5.8359C4.43359 9.05386 6.92176 11.6718 9.98003 11.6718ZM9.98003 1.20472C12.4071 1.20472 14.3815 3.28221 14.3815 5.8359C14.3815 8.38958 12.4071 10.4671 9.98003 10.4671C7.55301 10.4671 5.57856 8.3895 5.57856 5.8359C5.57856 3.28229 7.55301 1.20472 9.98003 1.20472Z" fill="#FF784A"/>
</g>
<defs>
<clipPath id="clip0">
<rect width="19.9584" height="21" fill="white"/>
</clipPath>
</defs>
</svg>
