<svg width="20" height="20" viewBox="0 0 20 20" fill="none" xmlns="http://www.w3.org/2000/svg">
<path d="M19.1595 7.05887C19.1597 5.18051 18.4235 3.40988 17.0866 2.07306C15.7498 0.736237 13.9792 0 12.1007 0H7.91824C7.91809 0 7.91809 0 7.91809 0C6.03989 0 4.2691 0.736237 2.93243 2.07291C1.59561 3.40988 0.859375 5.18051 0.859375 7.05887V10.3465C0.859375 11.8013 1.3031 13.2005 2.14264 14.3933C2.8833 15.4456 3.87939 16.2675 5.04074 16.7886V18.6771C5.04074 19.6535 5.58746 20 6.0556 20C6.39008 20 6.72455 19.8349 7.05017 19.5094L9.15405 17.4055L12.1008 17.4054C13.9792 17.4054 15.7498 16.6692 17.0866 15.3325C18.4235 13.9957 19.1597 12.2249 19.1597 10.3465L19.1595 7.05887ZM12.1008 16.2335L8.91144 16.2337C8.75595 16.2337 8.60703 16.2953 8.49716 16.4052L6.22162 18.6807C6.21872 18.6838 6.21567 18.6867 6.21262 18.6896C6.21262 18.6855 6.21262 18.6812 6.21262 18.6771V16.3976C6.21262 16.1545 6.06262 15.9367 5.83557 15.8501C3.56018 14.9818 2.0314 12.7701 2.0314 10.3465V7.05887C2.0314 5.49347 2.64572 4.01703 3.76114 2.90146C4.87656 1.78619 6.35284 1.17188 7.91824 1.17188H12.1007C13.6661 1.17188 15.1425 1.78619 16.2579 2.90161C17.3735 4.01718 17.9878 5.49362 17.9877 7.05887L17.9878 10.3465C17.9877 13.5927 15.3468 16.2335 12.1008 16.2335Z" fill="#FF784A"/>
<path d="M11.5692 9.58344C11.3405 9.35455 10.9696 9.35455 10.7407 9.58344L10.2674 10.0566L8.43326 8.22266L8.90659 7.74948C9.01645 7.63962 9.07825 7.49054 9.07825 7.33505C9.07825 7.17972 9.01645 7.03064 8.90659 6.92078L6.68766 4.70184C6.57779 4.59198 6.42887 4.53018 6.27338 4.53018C6.11805 4.53018 5.96897 4.59198 5.8591 4.70184L4.30576 6.25519C3.46576 7.09518 3.46576 8.46222 4.30591 9.30267L9.18735 14.1844C9.59324 14.5901 10.1345 14.8135 10.7111 14.8135C11.2879 14.8135 11.8291 14.5901 12.235 14.1844L13.7883 12.6312C13.8982 12.5212 13.96 12.3723 13.96 12.2168C13.96 12.0615 13.8982 11.9124 13.7883 11.8025L11.5692 9.58344ZM11.4063 13.3556C11.2218 13.54 10.9749 13.6417 10.7111 13.6417C10.4473 13.6417 10.2004 13.54 10.0159 13.3556L5.13462 8.47397C4.75132 8.09067 4.75116 7.46689 5.13446 7.08374L6.27338 5.94467L7.66361 7.33505L7.19028 7.80823C7.08042 7.91809 7.01862 8.06717 7.01862 8.2225C7.01862 8.37799 7.08042 8.52692 7.19028 8.63693L9.85294 11.2996C10.0818 11.5283 10.4528 11.5285 10.6816 11.2996L11.155 10.8264L12.5452 12.2166L11.4063 13.3556Z" fill="#FF784A"/>
<path d="M10.1523 2.59201C9.8287 2.59201 9.56641 2.85431 9.56641 3.17795C9.56641 3.50143 9.8287 3.76389 10.1523 3.76389C11.4933 3.76389 12.7541 4.28604 13.7023 5.23438C14.6506 6.18256 15.1728 7.44324 15.1728 8.78433C15.1728 9.10782 15.4351 9.37027 15.7587 9.37027C16.0822 9.37027 16.3447 9.10797 16.3447 8.78433C16.3447 7.13028 15.7006 5.57526 14.531 4.40567C13.3614 3.23608 11.8064 2.59201 10.1523 2.59201Z" fill="#FF784A"/>
<path d="M12.6624 8.78418C12.6624 9.10767 12.9249 9.37012 13.2484 9.37012C13.572 9.37012 13.8343 9.10767 13.8343 8.78418C13.8343 6.754 12.1825 5.10239 10.1523 5.10239C9.8287 5.10239 9.56641 5.36469 9.56641 5.68832C9.56641 6.01196 9.8287 6.27426 10.1523 6.27426C11.5365 6.27426 12.6624 7.40021 12.6624 8.78418Z" fill="#FF784A"/>
</svg>
