<svg width="28" height="17" viewBox="0 0 28 17" fill="none" xmlns="http://www.w3.org/2000/svg">
<path d="M15.8571 1H10.0794C12.1429 2.21797 11.3175 8.30783 9.66667 8.30783C8.34603 8.30783 6.64021 3.43594 5.95238 1H1C1.8254 2.89462 3.81779 7.35595 5.53968 10.7438C8.42857 16.4276 15.0317 16.4276 15.0317 15.6157C15.0317 14.8037 15.8571 11.5557 17.0952 11.5557C18.0857 11.5557 20.5344 13.9917 21.6349 15.2097C21.6786 15.2526 21.9562 15.5813 22.0476 15.6157H26.1746C26.8478 15.6157 27 15.6848 27 15.2097C27 11.5557 21.2222 9.93179 22.873 7.90183C24.1937 6.27787 26.1746 2.62396 27 1H21.2222C20.2593 3.16528 18.0032 7.57704 16.6825 7.90183C15.3619 8.22663 15.582 3.43594 15.8571 1Z" stroke="#FF784A" stroke-width="1.5" stroke-linecap="square" stroke-linejoin="round"/>
</svg>
