<svg width="20" height="20" viewBox="0 0 20 20" fill="none" xmlns="http://www.w3.org/2000/svg">
<g clip-path="url(#clip0)">
<path d="M17.1593 2.84073C15.3273 1.00876 12.8922 0 10.3012 0C10.3011 0 10.3004 0 10.3003 0C9.01886 0.000152588 7.77008 0.248261 6.5889 0.73761C5.40756 1.22696 4.34922 1.93451 3.443 2.84073C1.61118 4.67255 0.602419 7.10815 0.602419 9.69879C0.602419 11.2437 0.975191 12.7791 1.68152 14.147L0.0512718 18.8043C-0.0636269 19.1328 0.0177025 19.4899 0.263979 19.736C0.436251 19.9084 0.662997 20 0.896151 20C0.996096 20 1.09711 19.9832 1.19568 19.9487L5.85297 18.3186C7.22092 19.025 8.75626 19.3977 10.3012 19.3977C12.8918 19.3977 15.3273 18.3888 17.1593 16.557C18.9911 14.7252 20 12.2896 20 9.69894C20 7.10815 18.9912 4.67255 17.1593 2.84073ZM16.3298 15.7275C14.7195 17.338 12.5784 18.2246 10.3012 18.2246C8.90808 18.2246 7.52411 17.8801 6.29883 17.2279C6.07666 17.1098 5.81406 17.0895 5.57831 17.1721L1.34705 18.653L2.82807 14.4217C2.91062 14.1856 2.89017 13.923 2.77207 13.701C2.12006 12.476 1.77536 11.0921 1.77536 9.69879C1.77536 7.42157 2.6622 5.28046 4.27246 3.6702C5.88257 2.06009 8.02338 1.17325 10.3004 1.17294H10.3012C12.5786 1.17294 14.7195 2.05978 16.3298 3.6702C17.9402 5.28046 18.8271 7.42142 18.8271 9.69879C18.8271 11.9762 17.9402 14.1173 16.3298 15.7275Z" fill="#FF784A"/>
<path d="M13.9038 10.5652C13.4576 10.119 12.7316 10.119 12.2854 10.5652L11.7975 11.0532C10.5858 10.3929 9.60523 9.41238 8.94483 8.20068L9.43281 7.71271C9.87913 7.26654 9.87913 6.54053 9.43281 6.09436L8.1178 4.77936C7.67164 4.33319 6.94562 4.33319 6.49946 4.77936L5.44751 5.8313C4.84494 6.43387 4.81489 7.46979 5.36283 8.74832C5.8386 9.8584 6.70926 11.0785 7.81446 12.1837C8.91965 13.2889 10.1397 14.1595 11.2498 14.6353C11.8573 14.8956 12.4098 15.0255 12.8872 15.0255C13.4147 15.0255 13.8505 14.8669 14.1668 14.5506L15.2188 13.4985V13.4987C15.435 13.2825 15.554 12.9951 15.554 12.6895C15.554 12.3837 15.435 12.0964 15.2188 11.8803L13.9038 10.5652ZM13.3374 13.7212C13.1654 13.8931 12.6365 13.9534 11.712 13.5573C10.7358 13.1389 9.64612 12.3564 8.64393 11.3542C7.64173 10.352 6.85941 9.26254 6.44101 8.28629C6.04474 7.36176 6.10502 6.83273 6.27698 6.66077L7.30878 5.62897L8.5832 6.90353L7.97239 7.5145C7.6962 7.79068 7.62952 8.20953 7.80668 8.55682C8.60975 10.1315 9.86661 11.3884 11.4413 12.1915C11.7888 12.3686 12.2076 12.3021 12.4838 12.0258L13.0946 11.4149L14.3692 12.6895L13.3374 13.7212Z" fill="#FF784A"/>
</g>
<defs>
<clipPath id="clip0">
<rect width="20" height="20" fill="white"/>
</clipPath>
</defs>
</svg>
