<svg width="24" height="20" viewBox="0 0 24 20" fill="none" xmlns="http://www.w3.org/2000/svg">
<path d="M17.067 10.8588H13.8032C12.91 10.8588 12.1836 11.5552 12.1836 12.4117V14.8117C12.1836 15.6682 12.91 16.3646 13.8032 16.3646H17.067C17.9603 16.3646 18.6867 15.6682 18.6867 14.8117V12.4117C18.6867 11.5552 17.9603 10.8588 17.067 10.8588ZM17.5088 14.8117C17.5088 15.047 17.3075 15.2352 17.067 15.2352H13.8032C13.5578 15.2352 13.3615 15.0423 13.3615 14.8117V12.4117C13.3615 12.1764 13.5627 11.9882 13.8032 11.9882H17.067C17.3124 11.9882 17.5088 12.1811 17.5088 12.4117V14.8117Z" fill="#FF784A"/>
<path d="M24.0196 6.49645C24.0196 6.39762 23.9951 6.3035 23.9411 6.2188L20.3681 0.195262C20.265 0.0211445 20.0687 -0.0917969 19.8577 -0.0917969H4.15706C3.94601 -0.0917969 3.74969 0.0164387 3.64663 0.195262L0.0785276 6.2188C0.0294479 6.3035 0 6.39762 0 6.49645C0 7.84704 0.84908 9.00468 2.06135 9.51763V19.4518C2.06135 19.7623 2.32638 20.0165 2.65031 20.0165H5.90429C5.9092 20.0165 5.91411 20.0165 5.91902 20.0165H10.4834C10.4883 20.0165 10.4933 20.0165 10.4982 20.0165H21.3644C21.6883 20.0165 21.9534 19.7623 21.9534 19.4518V9.58821C21.9534 9.56468 21.9534 9.54586 21.9485 9.52704C23.1656 9.0141 24.0196 7.85174 24.0196 6.49645ZM4.50061 1.04232H19.5141L22.3067 5.75292H1.71288L4.50061 1.04232ZM17.0945 6.87762C16.908 7.89409 15.9804 8.66586 14.8663 8.66586C13.7521 8.66586 12.8245 7.89409 12.638 6.87762H17.0945ZM11.3865 6.87762C11.2 7.89409 10.2724 8.66586 9.15828 8.66586C8.04417 8.66586 7.11657 7.89409 6.92515 6.87762H11.3865ZM1.21718 6.87762H5.67853C5.49202 7.89409 4.55951 8.66586 3.4454 8.66586C2.33129 8.67057 1.40368 7.89409 1.21718 6.87762ZM9.89448 18.8871H6.50798V12.7929C6.50798 12.3506 6.88098 11.9882 7.34724 11.9882H9.06012C9.52147 11.9882 9.89939 12.3459 9.89939 12.7929V18.8871H9.89448ZM20.7755 18.8871H11.0724V12.7929C11.0724 11.7294 10.1693 10.8588 9.05521 10.8588H7.34233C6.23313 10.8588 5.32515 11.7247 5.32515 12.7929V18.8918H3.23926V9.79527C3.30798 9.79998 3.37669 9.79998 3.4454 9.79998C4.63313 9.79998 5.68344 9.22116 6.30184 8.34115C6.92025 9.22116 7.97055 9.79998 9.15828 9.79998C10.346 9.79998 11.3914 9.22116 12.0147 8.34115C12.6331 9.22116 13.6834 9.79998 14.8663 9.79998C16.054 9.79998 17.0994 9.22116 17.7178 8.34115C18.3362 9.22116 19.3865 9.79998 20.5742 9.79998C20.6429 9.79998 20.7067 9.79527 20.7755 9.79527V18.8871ZM20.5742 8.67057C19.4601 8.67057 18.5325 7.8988 18.346 6.88233H22.8074C22.616 7.89409 21.6883 8.67057 20.5742 8.67057Z" fill="#FF784A"/>
</svg>
