<svg width="28" height="16" viewBox="0 0 28 16" fill="none" xmlns="http://www.w3.org/2000/svg">
<g clip-path="url(#clip0)">
<path d="M7.58463 13.7168H5.2513C4.9293 13.7168 4.66797 13.4611 4.66797 13.146C4.66797 12.831 4.9293 12.5753 5.2513 12.5753H7.58463C7.90663 12.5753 8.16797 12.831 8.16797 13.146C8.16797 13.4611 7.90663 13.7168 7.58463 13.7168Z" fill="#FF784A"/>
<path d="M26.5423 13.7168H25.084C24.762 13.7168 24.5006 13.4611 24.5006 13.146C24.5006 12.8309 24.762 12.5752 25.084 12.5752H26.0581L26.8445 8.47466C26.834 6.37643 25.0023 4.58415 22.7506 4.58415H18.9205L17.0643 12.5752H20.4173C20.7393 12.5752 21.0006 12.8309 21.0006 13.146C21.0006 13.4611 20.7393 13.7168 20.4173 13.7168H16.334C16.1566 13.7168 15.9886 13.638 15.8778 13.5022C15.767 13.3675 15.725 13.1894 15.7646 13.0204L17.8856 3.88778C17.9463 3.62636 18.182 3.44257 18.455 3.44257H22.7506C25.6451 3.44257 28.0006 5.74742 28.0006 8.57969L27.1151 13.251C27.0638 13.5216 26.8235 13.7168 26.5423 13.7168Z" fill="#FF784A"/>
<path d="M22.7487 16C21.141 16 19.832 14.7203 19.832 13.1461C19.832 11.5718 21.141 10.2921 22.7487 10.2921C24.3564 10.2921 25.6654 11.5718 25.6654 13.1461C25.6654 14.7203 24.3564 16 22.7487 16ZM22.7487 11.4337C21.7839 11.4337 20.9987 12.202 20.9987 13.1461C20.9987 14.0902 21.7839 14.8585 22.7487 14.8585C23.7135 14.8585 24.4987 14.0902 24.4987 13.1461C24.4987 12.202 23.7135 11.4337 22.7487 11.4337Z" fill="#FF784A"/>
<path d="M9.91667 16C8.309 16 7 14.7203 7 13.1461C7 11.5718 8.309 10.2921 9.91667 10.2921C11.5243 10.2921 12.8333 11.5718 12.8333 13.1461C12.8333 14.7203 11.5243 16 9.91667 16ZM9.91667 11.4337C8.95183 11.4337 8.16667 12.202 8.16667 13.1461C8.16667 14.0902 8.95183 14.8585 9.91667 14.8585C10.8815 14.8585 11.6667 14.0902 11.6667 13.1461C11.6667 12.202 10.8815 11.4337 9.91667 11.4337Z" fill="#FF784A"/>
<path d="M7.58203 3.44261H2.91536C2.59336 3.44261 2.33203 3.18689 2.33203 2.87182C2.33203 2.55674 2.59336 2.30103 2.91536 2.30103H7.58203C7.90403 2.30103 8.16536 2.55674 8.16536 2.87182C8.16536 3.18689 7.90403 3.44261 7.58203 3.44261Z" fill="#FF784A"/>
<path d="M7.58463 6.86734H1.7513C1.4293 6.86734 1.16797 6.61163 1.16797 6.29656C1.16797 5.98148 1.4293 5.72577 1.7513 5.72577H7.58463C7.90663 5.72577 8.16797 5.98148 8.16797 6.29656C8.16797 6.61163 7.90663 6.86734 7.58463 6.86734Z" fill="#FF784A"/>
<path d="M7.58333 10.2921H0.583333C0.261333 10.2921 0 10.0364 0 9.7213C0 9.40623 0.261333 9.15051 0.583333 9.15051H7.58333C7.90533 9.15051 8.16667 9.40623 8.16667 9.7213C8.16667 10.0364 7.90533 10.2921 7.58333 10.2921Z" fill="#FF784A"/>
<path d="M16.3346 13.7168H12.2513C11.9293 13.7168 11.668 13.4611 11.668 13.146C11.668 12.831 11.9293 12.5752 12.2513 12.5752H15.8691L18.5198 1.15941H5.2513C4.9293 1.15941 4.66797 0.903691 4.66797 0.588614C4.66797 0.273537 4.9293 0.0178223 5.2513 0.0178223H19.2513C19.4286 0.0178223 19.5966 0.0965917 19.7075 0.23244C19.8183 0.367147 19.8603 0.545234 19.8206 0.714188L16.904 13.2716C16.8433 13.533 16.6065 13.7168 16.3346 13.7168Z" fill="#FF784A"/>
</g>
<defs>
<clipPath id="clip0">
<rect width="28" height="16" fill="white"/>
</clipPath>
</defs>
</svg>
